<?xml version="1.0" encoding="UTF-8" standalone="no"?>
<svg width="300px" height="300px" viewBox="0 0 300 300" version="1.1" xmlns="http://www.w3.org/2000/svg" xmlns:xlink="http://www.w3.org/1999/xlink">
    <!-- Generator: Sketch 3.6.1 (26313) - http://www.bohemiancoding.com/sketch -->
    <title>cover-language-selection</title>
    <desc>Created with Sketch.</desc>
    <defs>
        <filter x="-50%" y="-50%" width="200%" height="200%" filterUnits="objectBoundingBox" id="filter-1">
            <feOffset dx="0" dy="3" in="SourceAlpha" result="shadowOffsetOuter1"></feOffset>
            <feGaussianBlur stdDeviation="2" in="shadowOffsetOuter1" result="shadowBlurOuter1"></feGaussianBlur>
            <feColorMatrix values="0 0 0 0 0   0 0 0 0 0   0 0 0 0 0  0 0 0 0.35 0" in="shadowBlurOuter1" type="matrix" result="shadowMatrixOuter1"></feColorMatrix>
            <feMerge>
                <feMergeNode in="shadowMatrixOuter1"></feMergeNode>
                <feMergeNode in="SourceGraphic"></feMergeNode>
            </feMerge>
        </filter>
    </defs>
    <g id="Assets" stroke="none" stroke-width="1" fill="none" fill-rule="evenodd" filter="url(#filter-1)">
        <g id="cover-language-selection">
            <g id="Group" transform="translate(23.000000, 51.000000)">
                <rect id="Rectangle-38-Copy-2" stroke="#CCCCCC" fill="#FBFBFB" x="0" y="0" width="254" height="198" rx="2"></rect>
                <rect id="Rectangle-38-Copy-3" fill="#FFFFFF" x="0" y="0" width="254" height="31" rx="2"></rect>
                <path d="M0,31 L254,31" id="Line-Copy" stroke="#EEEEEE"></path>
                <path d="M18.7529412,17.0470588 C19.4588235,16.2 19.8823529,15.1411765 19.8823529,13.9411765 C19.8823529,11.1882353 17.6941176,9 14.9411765,9 C12.1882353,9 10,11.1882353 10,13.9411765 C10,16.6941176 12.1882353,18.8823529 14.9411765,18.8823529 C15.7882353,18.8823529 16.5647059,18.6705882 17.2,18.3176471 L19.1764706,20.2941176 C20.1647059,21.2823529 20.9411765,21.3529412 22,20.2941176 L18.7529412,17.0470588 L18.7529412,17.0470588 Z M11.4117647,13.9411765 C11.4117647,11.9647059 12.9647059,10.4117647 14.9411765,10.4117647 C16.9176471,10.4117647 18.4705882,11.9647059 18.4705882,13.9411765 C18.4705882,15.9176471 16.9176471,17.4705882 14.9411765,17.4705882 C12.9647059,17.4705882 11.4117647,15.8470588 11.4117647,13.9411765 L11.4117647,13.9411765 Z" id="Page-1-Copy" fill="#777777"></path>
                <text id="Language-search-Copy" font-family="HelveticaNeue, Helvetica Neue" font-size="12" font-weight="normal" fill="#AAAAAA">
                    <tspan x="28" y="20">Language search</tspan>
                </text>
                <text id="Common-languages-Copy" font-family="HelveticaNeue, Helvetica Neue" font-size="12" font-weight="normal" fill="#777777">
                    <tspan x="28" y="53">Common languages</tspan>
                </text>
                <text id="Worldwide-Copy" font-family="HelveticaNeue, Helvetica Neue" font-size="12" font-weight="normal" fill="#777777">
                    <tspan x="28" y="142">Worldwide</tspan>
                </text>
                <path d="M28.78,153.86 L28.78,161 L33.74,161 L33.74,160.2 L29.73,160.2 L29.73,157.73 L33.44,157.73 L33.44,156.93 L29.73,156.93 L29.73,154.66 L33.71,154.66 L33.71,153.86 L28.78,153.86 Z M34.75,155.83 L34.75,161 L35.6,161 L35.6,158.08 C35.6,157.846666 35.6316664,157.631668 35.695,157.435 C35.7583337,157.238332 35.8533327,157.066667 35.98,156.92 C36.1066673,156.773333 36.2649991,156.66 36.455,156.58 C36.645001,156.5 36.8699987,156.46 37.13,156.46 C37.4566683,156.46 37.7133324,156.553332 37.9,156.74 C38.0866676,156.926668 38.18,157.179998 38.18,157.5 L38.18,161 L39.03,161 L39.03,157.6 C39.03,157.319999 39.001667,157.065001 38.945,156.835 C38.8883331,156.604999 38.7900007,156.406667 38.65,156.24 C38.5099993,156.073332 38.3266678,155.943334 38.1,155.85 C37.8733322,155.756666 37.5900017,155.71 37.25,155.71 C36.4833295,155.71 35.9233351,156.02333 35.57,156.65 L35.55,156.65 L35.55,155.83 L34.75,155.83 Z M44.77,160.56 L44.77,155.83 L43.97,155.83 L43.97,156.57 L43.96,156.57 C43.8066659,156.283332 43.5933347,156.068334 43.32,155.925 C43.0466653,155.781666 42.7466683,155.71 42.42,155.71 C41.9733311,155.71 41.5966682,155.794999 41.29,155.965 C40.9833318,156.135001 40.7366676,156.351665 40.55,156.615 C40.3633324,156.878335 40.2300004,157.171665 40.15,157.495 C40.0699996,157.818335 40.03,158.133332 40.03,158.44 C40.03,158.793335 40.0783329,159.128332 40.175,159.445 C40.2716672,159.761668 40.4166657,160.038332 40.61,160.275 C40.8033343,160.511668 41.0433319,160.699999 41.33,160.84 C41.6166681,160.980001 41.9533314,161.05 42.34,161.05 C42.673335,161.05 42.9883319,160.975001 43.285,160.825 C43.5816682,160.674999 43.8033326,160.440002 43.95,160.12 L43.97,160.12 L43.97,160.46 C43.97,160.746668 43.941667,161.009999 43.885,161.25 C43.8283331,161.490001 43.7366673,161.694999 43.61,161.865 C43.4833327,162.035001 43.3233343,162.168333 43.13,162.265 C42.9366657,162.361667 42.7000014,162.41 42.42,162.41 C42.2799993,162.41 42.1333341,162.395 41.98,162.365 C41.8266659,162.335 41.6850007,162.286667 41.555,162.22 C41.4249994,162.153333 41.3150005,162.066667 41.225,161.96 C41.1349996,161.853333 41.0866667,161.723334 41.08,161.57 L40.23,161.57 C40.2433334,161.850001 40.316666,162.086666 40.45,162.28 C40.583334,162.473334 40.7516657,162.629999 40.955,162.75 C41.1583344,162.870001 41.3849988,162.956666 41.635,163.01 C41.8850013,163.063334 42.1299988,163.09 42.37,163.09 C43.1966708,163.09 43.8033314,162.880002 44.19,162.46 C44.5766686,162.039998 44.77,161.406671 44.77,160.56 L44.77,160.56 Z M42.39,160.31 C42.1099986,160.31 41.8766676,160.251667 41.69,160.135 C41.5033324,160.018333 41.3533339,159.865001 41.24,159.675 C41.1266661,159.484999 41.0466669,159.273335 41,159.04 C40.9533331,158.806666 40.93,158.573334 40.93,158.34 C40.93,158.093332 40.9583331,157.856668 41.015,157.63 C41.071667,157.403332 41.1616661,157.203334 41.285,157.03 C41.408334,156.856666 41.5666657,156.718334 41.76,156.615 C41.9533343,156.511666 42.1866653,156.46 42.46,156.46 C42.726668,156.46 42.9533324,156.513333 43.14,156.62 C43.3266676,156.726667 43.4783328,156.868332 43.595,157.045 C43.7116673,157.221668 43.7966664,157.419999 43.85,157.64 C43.9033336,157.860001 43.93,158.083332 43.93,158.31 C43.93,158.550001 43.901667,158.789999 43.845,159.03 C43.7883331,159.270001 43.7000006,159.484999 43.58,159.675 C43.4599994,159.865001 43.3016677,160.018333 43.105,160.135 C42.9083324,160.251667 42.6700014,160.31 42.39,160.31 L42.39,160.31 Z M46.1,153.86 L46.1,161 L46.95,161 L46.95,153.86 L46.1,153.86 Z M49.17,154.9 L49.17,153.86 L48.32,153.86 L48.32,154.9 L49.17,154.9 Z M48.32,155.83 L48.32,161 L49.17,161 L49.17,155.83 L48.32,155.83 Z M51.01,159.37 L50.16,159.37 C50.1733334,159.690002 50.2399994,159.961666 50.36,160.185 C50.4800006,160.408334 50.639999,160.588333 50.84,160.725 C51.040001,160.861667 51.2699987,160.96 51.53,161.02 C51.7900013,161.08 52.0633319,161.11 52.35,161.11 C52.6100013,161.11 52.8716654,161.085 53.135,161.035 C53.3983347,160.985 53.634999,160.896667 53.845,160.77 C54.0550011,160.643333 54.2249994,160.476668 54.355,160.27 C54.4850007,160.063332 54.55,159.803335 54.55,159.49 C54.55,159.243332 54.5016672,159.036667 54.405,158.87 C54.3083329,158.703332 54.1816675,158.565001 54.025,158.455 C53.8683326,158.344999 53.6883344,158.256667 53.485,158.19 C53.2816657,158.123333 53.0733344,158.066667 52.86,158.02 C52.659999,157.973333 52.460001,157.928334 52.26,157.885 C52.059999,157.841666 51.8800008,157.788334 51.72,157.725 C51.5599992,157.661666 51.4283339,157.581667 51.325,157.485 C51.2216662,157.388333 51.17,157.266667 51.17,157.12 C51.17,156.986666 51.203333,156.878334 51.27,156.795 C51.336667,156.711666 51.4233328,156.645 51.53,156.595 C51.6366672,156.545 51.7549994,156.51 51.885,156.49 C52.0150007,156.47 52.1433327,156.46 52.27,156.46 C52.4100007,156.46 52.5483327,156.475 52.685,156.505 C52.8216674,156.535 52.9466661,156.583333 53.06,156.65 C53.1733339,156.716667 53.2666663,156.804999 53.34,156.915 C53.4133337,157.025001 53.4566666,157.163332 53.47,157.33 L54.32,157.33 C54.2999999,157.016665 54.2333339,156.755001 54.12,156.545 C54.0066661,156.334999 53.855001,156.168334 53.665,156.045 C53.4749991,155.921666 53.2566679,155.835 53.01,155.785 C52.7633321,155.735 52.4933348,155.71 52.2,155.71 C51.9733322,155.71 51.7450012,155.738333 51.515,155.795 C51.2849989,155.851667 51.0783343,155.938333 50.895,156.055 C50.7116658,156.171667 50.5616673,156.323332 50.445,156.51 C50.3283328,156.696668 50.27,156.919999 50.27,157.18 C50.27,157.513335 50.3533325,157.773332 50.52,157.96 C50.6866675,158.146668 50.8949988,158.291666 51.145,158.395 C51.3950013,158.498334 51.6666652,158.578333 51.96,158.635 C52.2533348,158.691667 52.5249988,158.755 52.775,158.825 C53.0250013,158.895 53.2333325,158.986666 53.4,159.1 C53.5666675,159.213334 53.65,159.379999 53.65,159.6 C53.65,159.760001 53.6100004,159.891666 53.53,159.995 C53.4499996,160.098334 53.348334,160.176666 53.225,160.23 C53.1016661,160.283334 52.9666674,160.32 52.82,160.34 C52.6733326,160.36 52.533334,160.37 52.4,160.37 C52.2266658,160.37 52.0583342,160.353333 51.895,160.32 C51.7316659,160.286666 51.5850007,160.231667 51.455,160.155 C51.3249994,160.078333 51.2200004,159.975001 51.14,159.845 C51.0599996,159.714999 51.0166667,159.556668 51.01,159.37 L51.01,159.37 Z M55.49,153.86 L55.49,161 L56.34,161 L56.34,158.08 C56.34,157.846666 56.3716664,157.631668 56.435,157.435 C56.4983337,157.238332 56.5933327,157.066667 56.72,156.92 C56.8466673,156.773333 57.0049991,156.66 57.195,156.58 C57.385001,156.5 57.6099987,156.46 57.87,156.46 C58.1966683,156.46 58.4533324,156.553332 58.64,156.74 C58.8266676,156.926668 58.92,157.179998 58.92,157.5 L58.92,161 L59.77,161 L59.77,157.6 C59.77,157.319999 59.741667,157.065001 59.685,156.835 C59.6283331,156.604999 59.5300007,156.406667 59.39,156.24 C59.2499993,156.073332 59.0666678,155.943334 58.84,155.85 C58.6133322,155.756666 58.3300017,155.71 57.99,155.71 C57.8366659,155.71 57.6783342,155.726666 57.515,155.76 C57.3516659,155.793334 57.1950008,155.845 57.045,155.915 C56.8949993,155.985 56.7600006,156.074999 56.64,156.185 C56.5199994,156.295001 56.426667,156.429999 56.36,156.59 L56.34,156.59 L56.34,153.86 L55.49,153.86 Z M32.23,172.92 L29.26,172.92 C29.2733334,172.719999 29.3166663,172.531668 29.39,172.355 C29.4633337,172.178332 29.5633327,172.023334 29.69,171.89 C29.8166673,171.756666 29.9683325,171.651667 30.145,171.575 C30.3216676,171.498333 30.5199989,171.46 30.74,171.46 C30.9533344,171.46 31.1483325,171.498333 31.325,171.575 C31.5016676,171.651667 31.6549994,171.754999 31.785,171.885 C31.9150007,172.015001 32.018333,172.169999 32.095,172.35 C32.1716671,172.530001 32.2166666,172.719999 32.23,172.92 L32.23,172.92 Z M33.05,174.36 L32.21,174.36 C32.1366663,174.700002 31.9850012,174.953332 31.755,175.12 C31.5249989,175.286667 31.2300018,175.37 30.87,175.37 C30.5899986,175.37 30.3466677,175.323334 30.14,175.23 C29.9333323,175.136666 29.763334,175.011667 29.63,174.855 C29.496666,174.698333 29.4000003,174.518334 29.34,174.315 C29.2799997,174.111666 29.2533333,173.896668 29.26,173.67 L33.13,173.67 C33.1433334,173.356665 33.1150004,173.026668 33.045,172.68 C32.9749997,172.333332 32.8483343,172.013335 32.665,171.72 C32.4816658,171.426665 32.2383349,171.185001 31.935,170.995 C31.6316652,170.804999 31.2500023,170.71 30.79,170.71 C30.4366649,170.71 30.1116682,170.776666 29.815,170.91 C29.5183319,171.043334 29.2616678,171.229999 29.045,171.47 C28.8283323,171.710001 28.6600006,171.993332 28.54,172.32 C28.4199994,172.646668 28.36,173.006665 28.36,173.4 C28.3733334,173.793335 28.4316662,174.156665 28.535,174.49 C28.6383339,174.823335 28.7933323,175.109999 29,175.35 C29.2066677,175.590001 29.4616652,175.776666 29.765,175.91 C30.0683349,176.043334 30.4266646,176.11 30.84,176.11 C31.4266696,176.11 31.9133314,175.963335 32.3,175.67 C32.6866686,175.376665 32.9366661,174.940003 33.05,174.36 L33.05,174.36 Z M34.53,174.37 L33.68,174.37 C33.6933334,174.690002 33.7599994,174.961666 33.88,175.185 C34.0000006,175.408334 34.159999,175.588333 34.36,175.725 C34.560001,175.861667 34.7899987,175.96 35.05,176.02 C35.3100013,176.08 35.5833319,176.11 35.87,176.11 C36.1300013,176.11 36.3916654,176.085 36.655,176.035 C36.9183347,175.985 37.154999,175.896667 37.365,175.77 C37.5750011,175.643333 37.7449994,175.476668 37.875,175.27 C38.0050007,175.063332 38.07,174.803335 38.07,174.49 C38.07,174.243332 38.0216672,174.036667 37.925,173.87 C37.8283329,173.703332 37.7016675,173.565001 37.545,173.455 C37.3883326,173.344999 37.2083344,173.256667 37.005,173.19 C36.8016657,173.123333 36.5933344,173.066667 36.38,173.02 C36.179999,172.973333 35.980001,172.928334 35.78,172.885 C35.579999,172.841666 35.4000008,172.788334 35.24,172.725 C35.0799992,172.661666 34.9483339,172.581667 34.845,172.485 C34.7416662,172.388333 34.69,172.266667 34.69,172.12 C34.69,171.986666 34.723333,171.878334 34.79,171.795 C34.856667,171.711666 34.9433328,171.645 35.05,171.595 C35.1566672,171.545 35.2749994,171.51 35.405,171.49 C35.5350007,171.47 35.6633327,171.46 35.79,171.46 C35.9300007,171.46 36.0683327,171.475 36.205,171.505 C36.3416674,171.535 36.4666661,171.583333 36.58,171.65 C36.6933339,171.716667 36.7866663,171.804999 36.86,171.915 C36.9333337,172.025001 36.9766666,172.163332 36.99,172.33 L37.84,172.33 C37.8199999,172.016665 37.7533339,171.755001 37.64,171.545 C37.5266661,171.334999 37.375001,171.168334 37.185,171.045 C36.9949991,170.921666 36.7766679,170.835 36.53,170.785 C36.2833321,170.735 36.0133348,170.71 35.72,170.71 C35.4933322,170.71 35.2650012,170.738333 35.035,170.795 C34.8049989,170.851667 34.5983343,170.938333 34.415,171.055 C34.2316658,171.171667 34.0816673,171.323332 33.965,171.51 C33.8483328,171.696668 33.79,171.919999 33.79,172.18 C33.79,172.513335 33.8733325,172.773332 34.04,172.96 C34.2066675,173.146668 34.4149988,173.291666 34.665,173.395 C34.9150013,173.498334 35.1866652,173.578333 35.48,173.635 C35.7733348,173.691667 36.0449988,173.755 36.295,173.825 C36.5450013,173.895 36.7533325,173.986666 36.92,174.1 C37.0866675,174.213334 37.17,174.379999 37.17,174.6 C37.17,174.760001 37.1300004,174.891666 37.05,174.995 C36.9699996,175.098334 36.868334,175.176666 36.745,175.23 C36.6216661,175.283334 36.4866674,175.32 36.34,175.34 C36.1933326,175.36 36.053334,175.37 35.92,175.37 C35.7466658,175.37 35.5783342,175.353333 35.415,175.32 C35.2516659,175.286666 35.1050007,175.231667 34.975,175.155 C34.8449994,175.078333 34.7400004,174.975001 34.66,174.845 C34.5799996,174.714999 34.5366667,174.556668 34.53,174.37 L34.53,174.37 Z M39.04,170.83 L39.04,177.97 L39.89,177.97 L39.89,175.31 L39.91,175.31 C40.0033338,175.463334 40.1183327,175.591666 40.255,175.695 C40.3916674,175.798334 40.5366659,175.88 40.69,175.94 C40.8433341,176 40.9983326,176.043333 41.155,176.07 C41.3116675,176.096667 41.4533327,176.11 41.58,176.11 C41.9733353,176.11 42.3183319,176.040001 42.615,175.9 C42.9116682,175.759999 43.1583324,175.568335 43.355,175.325 C43.5516677,175.081665 43.6983329,174.796668 43.795,174.47 C43.8916672,174.143332 43.94,173.796669 43.94,173.43 C43.94,173.063332 43.8900005,172.716668 43.79,172.39 C43.6899995,172.063332 43.5416677,171.775001 43.345,171.525 C43.1483324,171.274999 42.9016682,171.076667 42.605,170.93 C42.3083319,170.783333 41.960002,170.71 41.56,170.71 C41.1999982,170.71 40.8700015,170.774999 40.57,170.905 C40.2699985,171.035001 40.0500007,171.243332 39.91,171.53 L39.89,171.53 L39.89,170.83 L39.04,170.83 Z M43.04,173.37 C43.04,173.623335 43.0133336,173.869999 42.96,174.11 C42.9066664,174.350001 42.8200006,174.563332 42.7,174.75 C42.5799994,174.936668 42.4216677,175.086666 42.225,175.2 C42.0283324,175.313334 41.7833348,175.37 41.49,175.37 C41.1966652,175.37 40.9466677,175.315001 40.74,175.205 C40.5333323,175.094999 40.3650007,174.950001 40.235,174.77 C40.1049994,174.589999 40.0100003,174.381668 39.95,174.145 C39.8899997,173.908332 39.86,173.663335 39.86,173.41 C39.86,173.169999 39.8883331,172.933335 39.945,172.7 C40.001667,172.466666 40.0933327,172.258334 40.22,172.075 C40.3466673,171.891666 40.509999,171.743334 40.71,171.63 C40.910001,171.516666 41.1533319,171.46 41.44,171.46 C41.7133347,171.46 41.9516657,171.513333 42.155,171.62 C42.3583344,171.726667 42.5249994,171.869999 42.655,172.05 C42.7850007,172.230001 42.8816664,172.434999 42.945,172.665 C43.0083337,172.895001 43.04,173.129999 43.04,173.37 L43.04,173.37 Z M49.52,175.98 C49.3733326,176.066667 49.1700013,176.11 48.91,176.11 C48.6899989,176.11 48.5150007,176.048334 48.385,175.925 C48.2549994,175.801666 48.19,175.600001 48.19,175.32 C47.9566655,175.600001 47.6850016,175.801666 47.375,175.925 C47.0649985,176.048334 46.7300018,176.11 46.37,176.11 C46.1366655,176.11 45.9150011,176.083334 45.705,176.03 C45.494999,175.976666 45.3133341,175.893334 45.16,175.78 C45.0066659,175.666666 44.8850005,175.518334 44.795,175.335 C44.7049996,175.151666 44.66,174.930001 44.66,174.67 C44.66,174.376665 44.7099995,174.136668 44.81,173.95 C44.9100005,173.763332 45.0416659,173.611667 45.205,173.495 C45.3683342,173.378333 45.554999,173.29 45.765,173.23 C45.9750011,173.17 46.1899989,173.12 46.41,173.08 C46.6433345,173.033333 46.864999,172.998333 47.075,172.975 C47.2850011,172.951667 47.4699992,172.918334 47.63,172.875 C47.7900008,172.831666 47.9166662,172.768334 48.01,172.685 C48.1033338,172.601666 48.15,172.480001 48.15,172.32 C48.15,172.133332 48.1150004,171.983334 48.045,171.87 C47.9749997,171.756666 47.8850006,171.67 47.775,171.61 C47.6649995,171.55 47.5416674,171.51 47.405,171.49 C47.2683327,171.47 47.133334,171.46 47,171.46 C46.6399982,171.46 46.3400012,171.528333 46.1,171.665 C45.8599988,171.801667 45.7300001,172.059998 45.71,172.44 L44.86,172.44 C44.8733334,172.119998 44.9399994,171.850001 45.06,171.63 C45.1800006,171.409999 45.339999,171.231667 45.54,171.095 C45.740001,170.958333 45.9683321,170.86 46.225,170.8 C46.481668,170.74 46.7566652,170.71 47.05,170.71 C47.2833345,170.71 47.5149989,170.726666 47.745,170.76 C47.9750012,170.793333 48.1833324,170.861666 48.37,170.965 C48.5566676,171.068334 48.7066661,171.213332 48.82,171.4 C48.9333339,171.586668 48.99,171.829998 48.99,172.13 L48.99,174.79 C48.99,174.990001 49.0016666,175.136666 49.025,175.23 C49.0483335,175.323334 49.126666,175.37 49.26,175.37 C49.3333337,175.37 49.4199995,175.353333 49.52,175.32 L49.52,175.98 Z M48.14,173.33 C48.0333328,173.41 47.8933342,173.468333 47.72,173.505 C47.5466658,173.541667 47.365001,173.571667 47.175,173.595 C46.9849991,173.618333 46.7933343,173.645 46.6,173.675 C46.4066657,173.705 46.2333341,173.753333 46.08,173.82 C45.9266659,173.886667 45.8016672,173.981666 45.705,174.105 C45.6083329,174.228334 45.56,174.396666 45.56,174.61 C45.56,174.750001 45.5883331,174.868333 45.645,174.965 C45.701667,175.061667 45.7749996,175.14 45.865,175.2 C45.9550005,175.26 46.0599994,175.303333 46.18,175.33 C46.3000006,175.356667 46.426666,175.37 46.56,175.37 C46.8400014,175.37 47.079999,175.331667 47.28,175.255 C47.480001,175.178333 47.6433327,175.081667 47.77,174.965 C47.8966673,174.848333 47.9899997,174.721667 48.05,174.585 C48.1100003,174.448333 48.14,174.320001 48.14,174.2 L48.14,173.33 Z M54.19,168.89 L53.67,168.89 C53.6366665,168.990001 53.5850004,169.088333 53.515,169.185 C53.4449997,169.281667 53.343334,169.33 53.21,169.33 C53.1033328,169.33 52.9950006,169.308334 52.885,169.265 C52.7749995,169.221666 52.6633339,169.175 52.55,169.125 C52.4366661,169.075 52.318334,169.03 52.195,168.99 C52.0716661,168.95 51.943334,168.93 51.81,168.93 C51.6499992,168.93 51.5133339,168.96 51.4,169.02 C51.2866661,169.08 51.1900004,169.159999 51.11,169.26 C51.0299996,169.360001 50.961667,169.476666 50.905,169.61 C50.8483331,169.743334 50.8000002,169.883333 50.76,170.03 L51.28,170.03 C51.2666666,169.903333 51.3166661,169.801667 51.43,169.725 C51.5433339,169.648333 51.6533328,169.61 51.76,169.61 C51.8533338,169.61 51.9583328,169.63 52.075,169.67 C52.1916673,169.71 52.3099994,169.753333 52.43,169.8 C52.5500006,169.853334 52.6683328,169.9 52.785,169.94 C52.9016673,169.98 53.0033329,170 53.09,170 C53.2833343,170 53.4416661,169.971667 53.565,169.915 C53.688334,169.858333 53.7933329,169.783334 53.88,169.69 C54.0466675,169.456665 54.1499998,169.190001 54.19,168.89 L54.19,168.89 Z M50.31,170.83 L50.31,176 L51.16,176 L51.16,173.08 C51.16,172.846666 51.1916664,172.631668 51.255,172.435 C51.3183337,172.238332 51.4133327,172.066667 51.54,171.92 C51.6666673,171.773333 51.8249991,171.66 52.015,171.58 C52.205001,171.5 52.4299987,171.46 52.69,171.46 C53.0166683,171.46 53.2733324,171.553332 53.46,171.74 C53.6466676,171.926668 53.74,172.179998 53.74,172.5 L53.74,176 L54.59,176 L54.59,172.6 C54.59,172.319999 54.561667,172.065001 54.505,171.835 C54.4483331,171.604999 54.3500007,171.406667 54.21,171.24 C54.0699993,171.073332 53.8866678,170.943334 53.66,170.85 C53.4333322,170.756666 53.1500017,170.71 52.81,170.71 C52.0433295,170.71 51.4833351,171.02333 51.13,171.65 L51.11,171.65 L51.11,170.83 L50.31,170.83 Z M56.49,173.42 C56.49,173.106665 56.5316663,172.828335 56.615,172.585 C56.6983338,172.341665 56.8133326,172.136667 56.96,171.97 C57.1066674,171.803333 57.2783324,171.676667 57.475,171.59 C57.6716677,171.503333 57.8799989,171.46 58.1,171.46 C58.3200011,171.46 58.5283324,171.503333 58.725,171.59 C58.9216677,171.676667 59.0933326,171.803333 59.24,171.97 C59.3866674,172.136667 59.5016663,172.341665 59.585,172.585 C59.6683338,172.828335 59.71,173.106665 59.71,173.42 C59.71,173.733335 59.6683338,174.011665 59.585,174.255 C59.5016663,174.498335 59.3866674,174.701666 59.24,174.865 C59.0933326,175.028334 58.9216677,175.153333 58.725,175.24 C58.5283324,175.326667 58.3200011,175.37 58.1,175.37 C57.8799989,175.37 57.6716677,175.326667 57.475,175.24 C57.2783324,175.153333 57.1066674,175.028334 56.96,174.865 C56.8133326,174.701666 56.6983338,174.498335 56.615,174.255 C56.5316663,174.011665 56.49,173.733335 56.49,173.42 L56.49,173.42 Z M55.59,173.42 C55.59,173.800002 55.6433328,174.153332 55.75,174.48 C55.8566672,174.806668 56.0166656,175.091665 56.23,175.335 C56.4433344,175.578335 56.7066651,175.768333 57.02,175.905 C57.3333349,176.041667 57.6933313,176.11 58.1,176.11 C58.5133354,176.11 58.8749985,176.041667 59.185,175.905 C59.4950016,175.768333 59.7566656,175.578335 59.97,175.335 C60.1833344,175.091665 60.3433328,174.806668 60.45,174.48 C60.5566672,174.153332 60.61,173.800002 60.61,173.42 C60.61,173.039998 60.5566672,172.685002 60.45,172.355 C60.3433328,172.024998 60.1833344,171.738335 59.97,171.495 C59.7566656,171.251665 59.4950016,171.060001 59.185,170.92 C58.8749985,170.779999 58.5133354,170.71 58.1,170.71 C57.6933313,170.71 57.3333349,170.779999 57.02,170.92 C56.7066651,171.060001 56.4433344,171.251665 56.23,171.495 C56.0166656,171.738335 55.8566672,172.024998 55.75,172.355 C55.6433328,172.685002 55.59,173.039998 55.59,173.42 L55.59,173.42 Z M61.66,168.86 L61.66,176 L62.51,176 L62.51,168.86 L61.66,168.86 Z M28.78,183.86 L28.78,191 L33.74,191 L33.74,190.2 L29.73,190.2 L29.73,187.73 L33.44,187.73 L33.44,186.93 L29.73,186.93 L29.73,184.66 L33.71,184.66 L33.71,183.86 L28.78,183.86 Z M35.27,189.37 L34.42,189.37 C34.4333334,189.690002 34.4999994,189.961666 34.62,190.185 C34.7400006,190.408334 34.899999,190.588333 35.1,190.725 C35.300001,190.861667 35.5299987,190.96 35.79,191.02 C36.0500013,191.08 36.3233319,191.11 36.61,191.11 C36.8700013,191.11 37.1316654,191.085 37.395,191.035 C37.6583347,190.985 37.894999,190.896667 38.105,190.77 C38.3150011,190.643333 38.4849994,190.476668 38.615,190.27 C38.7450007,190.063332 38.81,189.803335 38.81,189.49 C38.81,189.243332 38.7616672,189.036667 38.665,188.87 C38.5683329,188.703332 38.4416675,188.565001 38.285,188.455 C38.1283326,188.344999 37.9483344,188.256667 37.745,188.19 C37.5416657,188.123333 37.3333344,188.066667 37.12,188.02 C36.919999,187.973333 36.720001,187.928334 36.52,187.885 C36.319999,187.841666 36.1400008,187.788334 35.98,187.725 C35.8199992,187.661666 35.6883339,187.581667 35.585,187.485 C35.4816662,187.388333 35.43,187.266667 35.43,187.12 C35.43,186.986666 35.463333,186.878334 35.53,186.795 C35.596667,186.711666 35.6833328,186.645 35.79,186.595 C35.8966672,186.545 36.0149994,186.51 36.145,186.49 C36.2750007,186.47 36.4033327,186.46 36.53,186.46 C36.6700007,186.46 36.8083327,186.475 36.945,186.505 C37.0816674,186.535 37.2066661,186.583333 37.32,186.65 C37.4333339,186.716667 37.5266663,186.804999 37.6,186.915 C37.6733337,187.025001 37.7166666,187.163332 37.73,187.33 L38.58,187.33 C38.5599999,187.016665 38.4933339,186.755001 38.38,186.545 C38.2666661,186.334999 38.115001,186.168334 37.925,186.045 C37.7349991,185.921666 37.5166679,185.835 37.27,185.785 C37.0233321,185.735 36.7533348,185.71 36.46,185.71 C36.2333322,185.71 36.0050012,185.738333 35.775,185.795 C35.5449989,185.851667 35.3383343,185.938333 35.155,186.055 C34.9716658,186.171667 34.8216673,186.323332 34.705,186.51 C34.5883328,186.696668 34.53,186.919999 34.53,187.18 C34.53,187.513335 34.6133325,187.773332 34.78,187.96 C34.9466675,188.146668 35.1549988,188.291666 35.405,188.395 C35.6550013,188.498334 35.9266652,188.578333 36.22,188.635 C36.5133348,188.691667 36.7849988,188.755 37.035,188.825 C37.2850013,188.895 37.4933325,188.986666 37.66,189.1 C37.8266675,189.213334 37.91,189.379999 37.91,189.6 C37.91,189.760001 37.8700004,189.891666 37.79,189.995 C37.7099996,190.098334 37.608334,190.176666 37.485,190.23 C37.3616661,190.283334 37.2266674,190.32 37.08,190.34 C36.9333326,190.36 36.793334,190.37 36.66,190.37 C36.4866658,190.37 36.3183342,190.353333 36.155,190.32 C35.9916659,190.286666 35.8450007,190.231667 35.715,190.155 C35.5849994,190.078333 35.4800004,189.975001 35.4,189.845 C35.3199996,189.714999 35.2766667,189.556668 35.27,189.37 L35.27,189.37 Z M39.78,185.83 L39.78,192.97 L40.63,192.97 L40.63,190.31 L40.65,190.31 C40.7433338,190.463334 40.8583327,190.591666 40.995,190.695 C41.1316674,190.798334 41.2766659,190.88 41.43,190.94 C41.5833341,191 41.7383326,191.043333 41.895,191.07 C42.0516675,191.096667 42.1933327,191.11 42.32,191.11 C42.7133353,191.11 43.0583319,191.040001 43.355,190.9 C43.6516682,190.759999 43.8983324,190.568335 44.095,190.325 C44.2916677,190.081665 44.4383329,189.796668 44.535,189.47 C44.6316672,189.143332 44.68,188.796669 44.68,188.43 C44.68,188.063332 44.6300005,187.716668 44.53,187.39 C44.4299995,187.063332 44.2816677,186.775001 44.085,186.525 C43.8883324,186.274999 43.6416682,186.076667 43.345,185.93 C43.0483319,185.783333 42.700002,185.71 42.3,185.71 C41.9399982,185.71 41.6100015,185.774999 41.31,185.905 C41.0099985,186.035001 40.7900007,186.243332 40.65,186.53 L40.63,186.53 L40.63,185.83 L39.78,185.83 Z M43.78,188.37 C43.78,188.623335 43.7533336,188.869999 43.7,189.11 C43.6466664,189.350001 43.5600006,189.563332 43.44,189.75 C43.3199994,189.936668 43.1616677,190.086666 42.965,190.2 C42.7683324,190.313334 42.5233348,190.37 42.23,190.37 C41.9366652,190.37 41.6866677,190.315001 41.48,190.205 C41.2733323,190.094999 41.1050007,189.950001 40.975,189.77 C40.8449994,189.589999 40.7500003,189.381668 40.69,189.145 C40.6299997,188.908332 40.6,188.663335 40.6,188.41 C40.6,188.169999 40.6283331,187.933335 40.685,187.7 C40.741667,187.466666 40.8333327,187.258334 40.96,187.075 C41.0866673,186.891666 41.249999,186.743334 41.45,186.63 C41.650001,186.516666 41.8933319,186.46 42.18,186.46 C42.4533347,186.46 42.6916657,186.513333 42.895,186.62 C43.0983344,186.726667 43.2649994,186.869999 43.395,187.05 C43.5250007,187.230001 43.6216664,187.434999 43.685,187.665 C43.7483337,187.895001 43.78,188.129999 43.78,188.37 L43.78,188.37 Z M49.27,187.92 L46.3,187.92 C46.3133334,187.719999 46.3566663,187.531668 46.43,187.355 C46.5033337,187.178332 46.6033327,187.023334 46.73,186.89 C46.8566673,186.756666 47.0083325,186.651667 47.185,186.575 C47.3616676,186.498333 47.5599989,186.46 47.78,186.46 C47.9933344,186.46 48.1883325,186.498333 48.365,186.575 C48.5416676,186.651667 48.6949994,186.754999 48.825,186.885 C48.9550007,187.015001 49.058333,187.169999 49.135,187.35 C49.2116671,187.530001 49.2566666,187.719999 49.27,187.92 L49.27,187.92 Z M50.09,189.36 L49.25,189.36 C49.1766663,189.700002 49.0250012,189.953332 48.795,190.12 C48.5649989,190.286667 48.2700018,190.37 47.91,190.37 C47.6299986,190.37 47.3866677,190.323334 47.18,190.23 C46.9733323,190.136666 46.803334,190.011667 46.67,189.855 C46.536666,189.698333 46.4400003,189.518334 46.38,189.315 C46.3199997,189.111666 46.2933333,188.896668 46.3,188.67 L50.17,188.67 C50.1833334,188.356665 50.1550004,188.026668 50.085,187.68 C50.0149997,187.333332 49.8883343,187.013335 49.705,186.72 C49.5216658,186.426665 49.2783349,186.185001 48.975,185.995 C48.6716652,185.804999 48.2900023,185.71 47.83,185.71 C47.4766649,185.71 47.1516682,185.776666 46.855,185.91 C46.5583319,186.043334 46.3016678,186.229999 46.085,186.47 C45.8683323,186.710001 45.7000006,186.993332 45.58,187.32 C45.4599994,187.646668 45.4,188.006665 45.4,188.4 C45.4133334,188.793335 45.4716662,189.156665 45.575,189.49 C45.6783339,189.823335 45.8333323,190.109999 46.04,190.35 C46.2466677,190.590001 46.5016652,190.776666 46.805,190.91 C47.1083349,191.043334 47.4666646,191.11 47.88,191.11 C48.4666696,191.11 48.9533314,190.963335 49.34,190.67 C49.7266686,190.376665 49.9766661,189.940003 50.09,189.36 L50.09,189.36 Z M51.02,185.83 L51.02,191 L51.87,191 L51.87,188.7 C51.87,188.366665 51.903333,188.071668 51.97,187.815 C52.036667,187.558332 52.1433326,187.340001 52.29,187.16 C52.4366674,186.979999 52.6299988,186.843334 52.87,186.75 C53.1100012,186.656666 53.3999983,186.61 53.74,186.61 L53.74,185.71 C53.2799977,185.696667 52.9000015,185.789999 52.6,185.99 C52.2999985,186.190001 52.0466677,186.499998 51.84,186.92 L51.82,186.92 L51.82,185.83 L51.02,185.83 Z M58.96,190.98 C58.8133326,191.066667 58.6100013,191.11 58.35,191.11 C58.1299989,191.11 57.9550007,191.048334 57.825,190.925 C57.6949994,190.801666 57.63,190.600001 57.63,190.32 C57.3966655,190.600001 57.1250016,190.801666 56.815,190.925 C56.5049985,191.048334 56.1700018,191.11 55.81,191.11 C55.5766655,191.11 55.3550011,191.083334 55.145,191.03 C54.934999,190.976666 54.7533341,190.893334 54.6,190.78 C54.4466659,190.666666 54.3250005,190.518334 54.235,190.335 C54.1449996,190.151666 54.1,189.930001 54.1,189.67 C54.1,189.376665 54.1499995,189.136668 54.25,188.95 C54.3500005,188.763332 54.4816659,188.611667 54.645,188.495 C54.8083342,188.378333 54.994999,188.29 55.205,188.23 C55.4150011,188.17 55.6299989,188.12 55.85,188.08 C56.0833345,188.033333 56.304999,187.998333 56.515,187.975 C56.7250011,187.951667 56.9099992,187.918334 57.07,187.875 C57.2300008,187.831666 57.3566662,187.768334 57.45,187.685 C57.5433338,187.601666 57.59,187.480001 57.59,187.32 C57.59,187.133332 57.5550004,186.983334 57.485,186.87 C57.4149997,186.756666 57.3250006,186.67 57.215,186.61 C57.1049995,186.55 56.9816674,186.51 56.845,186.49 C56.7083327,186.47 56.573334,186.46 56.44,186.46 C56.0799982,186.46 55.7800012,186.528333 55.54,186.665 C55.2999988,186.801667 55.1700001,187.059998 55.15,187.44 L54.3,187.44 C54.3133334,187.119998 54.3799994,186.850001 54.5,186.63 C54.6200006,186.409999 54.779999,186.231667 54.98,186.095 C55.180001,185.958333 55.4083321,185.86 55.665,185.8 C55.921668,185.74 56.1966652,185.71 56.49,185.71 C56.7233345,185.71 56.9549989,185.726666 57.185,185.76 C57.4150012,185.793334 57.6233324,185.861666 57.81,185.965 C57.9966676,186.068334 58.1466661,186.213332 58.26,186.4 C58.3733339,186.586668 58.43,186.829998 58.43,187.13 L58.43,189.79 C58.43,189.990001 58.4416666,190.136666 58.465,190.23 C58.4883335,190.323334 58.566666,190.37 58.7,190.37 C58.7733337,190.37 58.8599995,190.353333 58.96,190.32 L58.96,190.98 Z M57.58,188.33 C57.4733328,188.41 57.3333342,188.468333 57.16,188.505 C56.9866658,188.541667 56.805001,188.571667 56.615,188.595 C56.4249991,188.618333 56.2333343,188.645 56.04,188.675 C55.8466657,188.705 55.6733341,188.753333 55.52,188.82 C55.3666659,188.886667 55.2416672,188.981666 55.145,189.105 C55.0483329,189.228334 55,189.396666 55,189.61 C55,189.750001 55.0283331,189.868333 55.085,189.965 C55.141667,190.061667 55.2149996,190.14 55.305,190.2 C55.3950005,190.26 55.4999994,190.303333 55.62,190.33 C55.7400006,190.356667 55.866666,190.37 56,190.37 C56.2800014,190.37 56.519999,190.331667 56.72,190.255 C56.920001,190.178333 57.0833327,190.081667 57.21,189.965 C57.3366673,189.848333 57.4299997,189.721667 57.49,189.585 C57.5500003,189.448333 57.58,189.320001 57.58,189.2 L57.58,188.33 Z M59.75,185.83 L59.75,191 L60.6,191 L60.6,188.08 C60.6,187.846666 60.6316664,187.631668 60.695,187.435 C60.7583337,187.238332 60.8533327,187.066667 60.98,186.92 C61.1066673,186.773333 61.2649991,186.66 61.455,186.58 C61.645001,186.5 61.8699987,186.46 62.13,186.46 C62.4566683,186.46 62.7133324,186.553332 62.9,186.74 C63.0866676,186.926668 63.18,187.179998 63.18,187.5 L63.18,191 L64.03,191 L64.03,187.6 C64.03,187.319999 64.001667,187.065001 63.945,186.835 C63.8883331,186.604999 63.7900007,186.406667 63.65,186.24 C63.5099993,186.073332 63.3266678,185.943334 63.1,185.85 C62.8733322,185.756666 62.5900017,185.71 62.25,185.71 C61.4833295,185.71 60.9233351,186.02333 60.57,186.65 L60.55,186.65 L60.55,185.83 L59.75,185.83 Z M66.49,185.83 L66.49,184.28 L65.64,184.28 L65.64,185.83 L64.76,185.83 L64.76,186.58 L65.64,186.58 L65.64,189.87 C65.64,190.110001 65.6633331,190.303333 65.71,190.45 C65.7566669,190.596667 65.8283329,190.71 65.925,190.79 C66.0216672,190.87 66.1483326,190.925 66.305,190.955 C66.4616675,190.985 66.6499989,191 66.87,191 L67.52,191 L67.52,190.25 L67.13,190.25 C66.996666,190.25 66.8883338,190.245 66.805,190.235 C66.7216663,190.225 66.6566669,190.203333 66.61,190.17 C66.5633331,190.136666 66.5316668,190.09 66.515,190.03 C66.4983333,189.97 66.49,189.89 66.49,189.79 L66.49,186.58 L67.52,186.58 L67.52,185.83 L66.49,185.83 Z M69.08,188.42 C69.08,188.106665 69.1216663,187.828335 69.205,187.585 C69.2883338,187.341665 69.4033326,187.136667 69.55,186.97 C69.6966674,186.803333 69.8683324,186.676667 70.065,186.59 C70.2616677,186.503333 70.4699989,186.46 70.69,186.46 C70.9100011,186.46 71.1183324,186.503333 71.315,186.59 C71.5116677,186.676667 71.6833326,186.803333 71.83,186.97 C71.9766674,187.136667 72.0916663,187.341665 72.175,187.585 C72.2583338,187.828335 72.3,188.106665 72.3,188.42 C72.3,188.733335 72.2583338,189.011665 72.175,189.255 C72.0916663,189.498335 71.9766674,189.701666 71.83,189.865 C71.6833326,190.028334 71.5116677,190.153333 71.315,190.24 C71.1183324,190.326667 70.9100011,190.37 70.69,190.37 C70.4699989,190.37 70.2616677,190.326667 70.065,190.24 C69.8683324,190.153333 69.6966674,190.028334 69.55,189.865 C69.4033326,189.701666 69.2883338,189.498335 69.205,189.255 C69.1216663,189.011665 69.08,188.733335 69.08,188.42 L69.08,188.42 Z M68.18,188.42 C68.18,188.800002 68.2333328,189.153332 68.34,189.48 C68.4466672,189.806668 68.6066656,190.091665 68.82,190.335 C69.0333344,190.578335 69.2966651,190.768333 69.61,190.905 C69.9233349,191.041667 70.2833313,191.11 70.69,191.11 C71.1033354,191.11 71.4649985,191.041667 71.775,190.905 C72.0850016,190.768333 72.3466656,190.578335 72.56,190.335 C72.7733344,190.091665 72.9333328,189.806668 73.04,189.48 C73.1466672,189.153332 73.2,188.800002 73.2,188.42 C73.2,188.039998 73.1466672,187.685002 73.04,187.355 C72.9333328,187.024998 72.7733344,186.738335 72.56,186.495 C72.3466656,186.251665 72.0850016,186.060001 71.775,185.92 C71.4649985,185.779999 71.1033354,185.71 70.69,185.71 C70.2833313,185.71 69.9233349,185.779999 69.61,185.92 C69.2966651,186.060001 69.0333344,186.251665 68.82,186.495 C68.6066656,186.738335 68.4466672,187.024998 68.34,187.355 C68.2333328,187.685002 68.18,188.039998 68.18,188.42 L68.18,188.42 Z" id="English-Copy" fill="#165CA0"></path>
                <path d="M93.78,153.86 L93.78,161 L98.51,161 L98.51,160.2 L94.73,160.2 L94.73,153.86 L93.78,153.86 Z M99.82,158.42 C99.82,158.106665 99.8616662,157.828335 99.945,157.585 C100.028334,157.341665 100.143333,157.136667 100.29,156.97 C100.436667,156.803333 100.608332,156.676667 100.805,156.59 C101.001668,156.503333 101.209999,156.46 101.43,156.46 C101.650001,156.46 101.858332,156.503333 102.055,156.59 C102.251668,156.676667 102.423333,156.803333 102.57,156.97 C102.716667,157.136667 102.831666,157.341665 102.915,157.585 C102.998334,157.828335 103.04,158.106665 103.04,158.42 C103.04,158.733335 102.998334,159.011665 102.915,159.255 C102.831666,159.498335 102.716667,159.701666 102.57,159.865 C102.423333,160.028334 102.251668,160.153333 102.055,160.24 C101.858332,160.326667 101.650001,160.37 101.43,160.37 C101.209999,160.37 101.001668,160.326667 100.805,160.24 C100.608332,160.153333 100.436667,160.028334 100.29,159.865 C100.143333,159.701666 100.028334,159.498335 99.945,159.255 C99.8616662,159.011665 99.82,158.733335 99.82,158.42 L99.82,158.42 Z M98.92,158.42 C98.92,158.800002 98.9733328,159.153332 99.08,159.48 C99.1866672,159.806668 99.3466656,160.091665 99.56,160.335 C99.7733344,160.578335 100.036665,160.768333 100.35,160.905 C100.663335,161.041667 101.023331,161.11 101.43,161.11 C101.843335,161.11 102.204998,161.041667 102.515,160.905 C102.825002,160.768333 103.086666,160.578335 103.3,160.335 C103.513334,160.091665 103.673333,159.806668 103.78,159.48 C103.886667,159.153332 103.94,158.800002 103.94,158.42 C103.94,158.039998 103.886667,157.685002 103.78,157.355 C103.673333,157.024998 103.513334,156.738335 103.3,156.495 C103.086666,156.251665 102.825002,156.060001 102.515,155.92 C102.204998,155.779999 101.843335,155.71 101.43,155.71 C101.023331,155.71 100.663335,155.779999 100.35,155.92 C100.036665,156.060001 99.7733344,156.251665 99.56,156.495 C99.3466656,156.738335 99.1866672,157.024998 99.08,157.355 C98.9733328,157.685002 98.92,158.039998 98.92,158.42 L98.92,158.42 Z M105.84,154.9 L105.84,153.86 L104.99,153.86 L104.99,154.9 L105.84,154.9 Z M105.84,161.65 L105.84,155.83 L104.99,155.83 L104.99,161.51 C104.99,161.776668 104.956667,161.961666 104.89,162.065 C104.823333,162.168334 104.696668,162.22 104.51,162.22 L104.33,162.22 C104.303333,162.22 104.278333,162.218333 104.255,162.215 C104.231667,162.211667 104.203333,162.206667 104.17,162.2 L104.17,162.93 C104.303334,162.956667 104.446666,162.97 104.6,162.97 C104.980002,162.97 105.281666,162.865001 105.505,162.655 C105.728334,162.444999 105.84,162.110002 105.84,161.65 L105.84,161.65 Z M107.19,153.86 L107.19,161 L108.04,161 L108.04,160.31 L108.06,160.31 C108.153334,160.463334 108.268333,160.591666 108.405,160.695 C108.541667,160.798334 108.686666,160.88 108.84,160.94 C108.993334,161 109.148333,161.043333 109.305,161.07 C109.461667,161.096667 109.603333,161.11 109.73,161.11 C110.123335,161.11 110.468332,161.040001 110.765,160.9 C111.061668,160.759999 111.308332,160.568335 111.505,160.325 C111.701668,160.081665 111.848333,159.796668 111.945,159.47 C112.041667,159.143332 112.09,158.796669 112.09,158.43 C112.09,158.063332 112.04,157.716668 111.94,157.39 C111.839999,157.063332 111.691668,156.775001 111.495,156.525 C111.298332,156.274999 111.051668,156.076667 110.755,155.93 C110.458332,155.783333 110.110002,155.71 109.71,155.71 C109.349998,155.71 109.020001,155.774999 108.72,155.905 C108.419998,156.035001 108.200001,156.243332 108.06,156.53 L108.04,156.53 L108.04,153.86 L107.19,153.86 Z M111.19,158.37 C111.19,158.623335 111.163334,158.869999 111.11,159.11 C111.056666,159.350001 110.970001,159.563332 110.85,159.75 C110.729999,159.936668 110.571668,160.086666 110.375,160.2 C110.178332,160.313334 109.933335,160.37 109.64,160.37 C109.346665,160.37 109.096668,160.315001 108.89,160.205 C108.683332,160.094999 108.515001,159.950001 108.385,159.77 C108.254999,159.589999 108.16,159.381668 108.1,159.145 C108.04,158.908332 108.01,158.663335 108.01,158.41 C108.01,158.169999 108.038333,157.933335 108.095,157.7 C108.151667,157.466666 108.243333,157.258334 108.37,157.075 C108.496667,156.891666 108.659999,156.743334 108.86,156.63 C109.060001,156.516666 109.303332,156.46 109.59,156.46 C109.863335,156.46 110.101666,156.513333 110.305,156.62 C110.508334,156.726667 110.674999,156.869999 110.805,157.05 C110.935001,157.230001 111.031666,157.434999 111.095,157.665 C111.158334,157.895001 111.19,158.129999 111.19,158.37 L111.19,158.37 Z M117.67,160.98 C117.523333,161.066667 117.320001,161.11 117.06,161.11 C116.839999,161.11 116.665001,161.048334 116.535,160.925 C116.404999,160.801666 116.34,160.600001 116.34,160.32 C116.106665,160.600001 115.835002,160.801666 115.525,160.925 C115.214998,161.048334 114.880002,161.11 114.52,161.11 C114.286665,161.11 114.065001,161.083334 113.855,161.03 C113.644999,160.976666 113.463334,160.893334 113.31,160.78 C113.156666,160.666666 113.035,160.518334 112.945,160.335 C112.855,160.151666 112.81,159.930001 112.81,159.67 C112.81,159.376665 112.86,159.136668 112.96,158.95 C113.06,158.763332 113.191666,158.611667 113.355,158.495 C113.518334,158.378333 113.704999,158.29 113.915,158.23 C114.125001,158.17 114.339999,158.12 114.56,158.08 C114.793335,158.033333 115.014999,157.998333 115.225,157.975 C115.435001,157.951667 115.619999,157.918334 115.78,157.875 C115.940001,157.831666 116.066666,157.768334 116.16,157.685 C116.253334,157.601666 116.3,157.480001 116.3,157.32 C116.3,157.133332 116.265,156.983334 116.195,156.87 C116.125,156.756666 116.035001,156.67 115.925,156.61 C115.814999,156.55 115.691667,156.51 115.555,156.49 C115.418333,156.47 115.283334,156.46 115.15,156.46 C114.789998,156.46 114.490001,156.528333 114.25,156.665 C114.009999,156.801667 113.88,157.059998 113.86,157.44 L113.01,157.44 C113.023333,157.119998 113.089999,156.850001 113.21,156.63 C113.330001,156.409999 113.489999,156.231667 113.69,156.095 C113.890001,155.958333 114.118332,155.86 114.375,155.8 C114.631668,155.74 114.906665,155.71 115.2,155.71 C115.433334,155.71 115.664999,155.726666 115.895,155.76 C116.125001,155.793334 116.333332,155.861666 116.52,155.965 C116.706668,156.068334 116.856666,156.213332 116.97,156.4 C117.083334,156.586668 117.14,156.829998 117.14,157.13 L117.14,159.79 C117.14,159.990001 117.151667,160.136666 117.175,160.23 C117.198333,160.323334 117.276666,160.37 117.41,160.37 C117.483334,160.37 117.569999,160.353333 117.67,160.32 L117.67,160.98 Z M116.29,158.33 C116.183333,158.41 116.043334,158.468333 115.87,158.505 C115.696666,158.541667 115.515001,158.571667 115.325,158.595 C115.134999,158.618333 114.943334,158.645 114.75,158.675 C114.556666,158.705 114.383334,158.753333 114.23,158.82 C114.076666,158.886667 113.951667,158.981666 113.855,159.105 C113.758333,159.228334 113.71,159.396666 113.71,159.61 C113.71,159.750001 113.738333,159.868333 113.795,159.965 C113.851667,160.061667 113.925,160.14 114.015,160.2 C114.105,160.26 114.209999,160.303333 114.33,160.33 C114.450001,160.356667 114.576666,160.37 114.71,160.37 C114.990001,160.37 115.229999,160.331667 115.43,160.255 C115.630001,160.178333 115.793333,160.081667 115.92,159.965 C116.046667,159.848333 116.14,159.721667 116.2,159.585 C116.26,159.448333 116.29,159.320001 116.29,159.2 L116.29,158.33 Z M118.46,155.83 L118.46,161 L119.31,161 L119.31,158.08 C119.31,157.846666 119.341666,157.631668 119.405,157.435 C119.468334,157.238332 119.563333,157.066667 119.69,156.92 C119.816667,156.773333 119.974999,156.66 120.165,156.58 C120.355001,156.5 120.579999,156.46 120.84,156.46 C121.166668,156.46 121.423332,156.553332 121.61,156.74 C121.796668,156.926668 121.89,157.179998 121.89,157.5 L121.89,161 L122.74,161 L122.74,157.6 C122.74,157.319999 122.711667,157.065001 122.655,156.835 C122.598333,156.604999 122.500001,156.406667 122.36,156.24 C122.219999,156.073332 122.036668,155.943334 121.81,155.85 C121.583332,155.756666 121.300002,155.71 120.96,155.71 C120.193329,155.71 119.633335,156.02333 119.28,156.65 L119.26,156.65 L119.26,155.83 L118.46,155.83 Z M93.77,168.86 L93.77,176 L94.67,176 L94.67,170.27 L94.69,170.27 L98.42,176 L99.46,176 L99.46,168.86 L98.56,168.86 L98.56,174.65 L98.54,174.65 L94.78,168.86 L93.77,168.86 Z M101.48,173.42 C101.48,173.106665 101.521666,172.828335 101.605,172.585 C101.688334,172.341665 101.803333,172.136667 101.95,171.97 C102.096667,171.803333 102.268332,171.676667 102.465,171.59 C102.661668,171.503333 102.869999,171.46 103.09,171.46 C103.310001,171.46 103.518332,171.503333 103.715,171.59 C103.911668,171.676667 104.083333,171.803333 104.23,171.97 C104.376667,172.136667 104.491666,172.341665 104.575,172.585 C104.658334,172.828335 104.7,173.106665 104.7,173.42 C104.7,173.733335 104.658334,174.011665 104.575,174.255 C104.491666,174.498335 104.376667,174.701666 104.23,174.865 C104.083333,175.028334 103.911668,175.153333 103.715,175.24 C103.518332,175.326667 103.310001,175.37 103.09,175.37 C102.869999,175.37 102.661668,175.326667 102.465,175.24 C102.268332,175.153333 102.096667,175.028334 101.95,174.865 C101.803333,174.701666 101.688334,174.498335 101.605,174.255 C101.521666,174.011665 101.48,173.733335 101.48,173.42 L101.48,173.42 Z M100.58,173.42 C100.58,173.800002 100.633333,174.153332 100.74,174.48 C100.846667,174.806668 101.006666,175.091665 101.22,175.335 C101.433334,175.578335 101.696665,175.768333 102.01,175.905 C102.323335,176.041667 102.683331,176.11 103.09,176.11 C103.503335,176.11 103.864998,176.041667 104.175,175.905 C104.485002,175.768333 104.746666,175.578335 104.96,175.335 C105.173334,175.091665 105.333333,174.806668 105.44,174.48 C105.546667,174.153332 105.6,173.800002 105.6,173.42 C105.6,173.039998 105.546667,172.685002 105.44,172.355 C105.333333,172.024998 105.173334,171.738335 104.96,171.495 C104.746666,171.251665 104.485002,171.060001 104.175,170.92 C103.864998,170.779999 103.503335,170.71 103.09,170.71 C102.683331,170.71 102.323335,170.779999 102.01,170.92 C101.696665,171.060001 101.433334,171.251665 101.22,171.495 C101.006666,171.738335 100.846667,172.024998 100.74,172.355 C100.633333,172.685002 100.58,173.039998 100.58,173.42 L100.58,173.42 Z M108.93,176 L110.82,170.83 L109.93,170.83 L108.52,175.14 L108.5,175.14 L107.05,170.83 L106.1,170.83 L108.02,176 L108.93,176 Z M112.5,169.9 L112.5,168.86 L111.65,168.86 L111.65,169.9 L112.5,169.9 Z M111.65,170.83 L111.65,176 L112.5,176 L112.5,170.83 L111.65,170.83 Z M118.4,175.98 C118.253333,176.066667 118.050001,176.11 117.79,176.11 C117.569999,176.11 117.395001,176.048334 117.265,175.925 C117.134999,175.801666 117.07,175.600001 117.07,175.32 C116.836665,175.600001 116.565002,175.801666 116.255,175.925 C115.944998,176.048334 115.610002,176.11 115.25,176.11 C115.016665,176.11 114.795001,176.083334 114.585,176.03 C114.374999,175.976666 114.193334,175.893334 114.04,175.78 C113.886666,175.666666 113.765,175.518334 113.675,175.335 C113.585,175.151666 113.54,174.930001 113.54,174.67 C113.54,174.376665 113.589999,174.136668 113.69,173.95 C113.79,173.763332 113.921666,173.611667 114.085,173.495 C114.248334,173.378333 114.434999,173.29 114.645,173.23 C114.855001,173.17 115.069999,173.12 115.29,173.08 C115.523334,173.033333 115.744999,172.998333 115.955,172.975 C116.165001,172.951667 116.349999,172.918334 116.51,172.875 C116.670001,172.831666 116.796666,172.768334 116.89,172.685 C116.983334,172.601666 117.03,172.480001 117.03,172.32 C117.03,172.133332 116.995,171.983334 116.925,171.87 C116.855,171.756666 116.765001,171.67 116.655,171.61 C116.544999,171.55 116.421667,171.51 116.285,171.49 C116.148333,171.47 116.013334,171.46 115.88,171.46 C115.519998,171.46 115.220001,171.528333 114.98,171.665 C114.739999,171.801667 114.61,172.059998 114.59,172.44 L113.74,172.44 C113.753333,172.119998 113.819999,171.850001 113.94,171.63 C114.060001,171.409999 114.219999,171.231667 114.42,171.095 C114.620001,170.958333 114.848332,170.86 115.105,170.8 C115.361668,170.74 115.636665,170.71 115.93,170.71 C116.163334,170.71 116.394999,170.726666 116.625,170.76 C116.855001,170.793333 117.063332,170.861666 117.25,170.965 C117.436668,171.068334 117.586666,171.213332 117.7,171.4 C117.813334,171.586668 117.87,171.829998 117.87,172.13 L117.87,174.79 C117.87,174.990001 117.881667,175.136666 117.905,175.23 C117.928333,175.323334 118.006666,175.37 118.14,175.37 C118.213334,175.37 118.299999,175.353333 118.4,175.32 L118.4,175.98 Z M117.02,173.33 C116.913333,173.41 116.773334,173.468333 116.6,173.505 C116.426666,173.541667 116.245001,173.571667 116.055,173.595 C115.864999,173.618333 115.673334,173.645 115.48,173.675 C115.286666,173.705 115.113334,173.753333 114.96,173.82 C114.806666,173.886667 114.681667,173.981666 114.585,174.105 C114.488333,174.228334 114.44,174.396666 114.44,174.61 C114.44,174.750001 114.468333,174.868333 114.525,174.965 C114.581667,175.061667 114.655,175.14 114.745,175.2 C114.835,175.26 114.939999,175.303333 115.06,175.33 C115.180001,175.356667 115.306666,175.37 115.44,175.37 C115.720001,175.37 115.959999,175.331667 116.16,175.255 C116.360001,175.178333 116.523333,175.081667 116.65,174.965 C116.776667,174.848333 116.87,174.721667 116.93,174.585 C116.99,174.448333 117.02,174.320001 117.02,174.2 L117.02,173.33 Z M119.24,168.86 L119.24,176 L120.09,176 L120.09,168.86 L119.24,168.86 Z M95.4,184.66 L95.4,191 L96.35,191 L96.35,184.66 L98.73,184.66 L98.73,183.86 L93.02,183.86 L93.02,184.66 L95.4,184.66 Z M100,188.42 C100,188.106665 100.041666,187.828335 100.125,187.585 C100.208334,187.341665 100.323333,187.136667 100.47,186.97 C100.616667,186.803333 100.788332,186.676667 100.985,186.59 C101.181668,186.503333 101.389999,186.46 101.61,186.46 C101.830001,186.46 102.038332,186.503333 102.235,186.59 C102.431668,186.676667 102.603333,186.803333 102.75,186.97 C102.896667,187.136667 103.011666,187.341665 103.095,187.585 C103.178334,187.828335 103.22,188.106665 103.22,188.42 C103.22,188.733335 103.178334,189.011665 103.095,189.255 C103.011666,189.498335 102.896667,189.701666 102.75,189.865 C102.603333,190.028334 102.431668,190.153333 102.235,190.24 C102.038332,190.326667 101.830001,190.37 101.61,190.37 C101.389999,190.37 101.181668,190.326667 100.985,190.24 C100.788332,190.153333 100.616667,190.028334 100.47,189.865 C100.323333,189.701666 100.208334,189.498335 100.125,189.255 C100.041666,189.011665 100,188.733335 100,188.42 L100,188.42 Z M99.1,188.42 C99.1,188.800002 99.1533328,189.153332 99.26,189.48 C99.3666672,189.806668 99.5266656,190.091665 99.74,190.335 C99.9533344,190.578335 100.216665,190.768333 100.53,190.905 C100.843335,191.041667 101.203331,191.11 101.61,191.11 C102.023335,191.11 102.384998,191.041667 102.695,190.905 C103.005002,190.768333 103.266666,190.578335 103.48,190.335 C103.693334,190.091665 103.853333,189.806668 103.96,189.48 C104.066667,189.153332 104.12,188.800002 104.12,188.42 C104.12,188.039998 104.066667,187.685002 103.96,187.355 C103.853333,187.024998 103.693334,186.738335 103.48,186.495 C103.266666,186.251665 103.005002,186.060001 102.695,185.92 C102.384998,185.779999 102.023335,185.71 101.61,185.71 C101.203331,185.71 100.843335,185.779999 100.53,185.92 C100.216665,186.060001 99.9533344,186.251665 99.74,186.495 C99.5266656,186.738335 99.3666672,187.024998 99.26,187.355 C99.1533328,187.685002 99.1,188.039998 99.1,188.42 L99.1,188.42 Z M105.17,183.86 L105.17,191 L106.02,191 L106.02,189.04 L106.82,188.3 L108.59,191 L109.67,191 L107.47,187.71 L109.52,185.83 L108.38,185.83 L106.02,188.09 L106.02,183.86 L105.17,183.86 Z M111.21,184.9 L111.21,183.86 L110.36,183.86 L110.36,184.9 L111.21,184.9 Z M110.36,185.83 L110.36,191 L111.21,191 L111.21,185.83 L110.36,185.83 Z M116.4,187.28 L116.4,184.66 L118.26,184.66 C118.800003,184.66 119.194999,184.771666 119.445,184.995 C119.695001,185.218334 119.82,185.543331 119.82,185.97 C119.82,186.396669 119.695001,186.723332 119.445,186.95 C119.194999,187.176668 118.800003,187.286667 118.26,187.28 L116.4,187.28 Z M115.45,183.86 L115.45,191 L116.4,191 L116.4,188.08 L118.58,188.08 C119.300004,188.086667 119.844998,187.903335 120.215,187.53 C120.585002,187.156665 120.77,186.63667 120.77,185.97 C120.77,185.30333 120.585002,184.785002 120.215,184.415 C119.844998,184.044998 119.300004,183.86 118.58,183.86 L115.45,183.86 Z M122.41,188.42 C122.41,188.106665 122.451666,187.828335 122.535,187.585 C122.618334,187.341665 122.733333,187.136667 122.88,186.97 C123.026667,186.803333 123.198332,186.676667 123.395,186.59 C123.591668,186.503333 123.799999,186.46 124.02,186.46 C124.240001,186.46 124.448332,186.503333 124.645,186.59 C124.841668,186.676667 125.013333,186.803333 125.16,186.97 C125.306667,187.136667 125.421666,187.341665 125.505,187.585 C125.588334,187.828335 125.63,188.106665 125.63,188.42 C125.63,188.733335 125.588334,189.011665 125.505,189.255 C125.421666,189.498335 125.306667,189.701666 125.16,189.865 C125.013333,190.028334 124.841668,190.153333 124.645,190.24 C124.448332,190.326667 124.240001,190.37 124.02,190.37 C123.799999,190.37 123.591668,190.326667 123.395,190.24 C123.198332,190.153333 123.026667,190.028334 122.88,189.865 C122.733333,189.701666 122.618334,189.498335 122.535,189.255 C122.451666,189.011665 122.41,188.733335 122.41,188.42 L122.41,188.42 Z M121.51,188.42 C121.51,188.800002 121.563333,189.153332 121.67,189.48 C121.776667,189.806668 121.936666,190.091665 122.15,190.335 C122.363334,190.578335 122.626665,190.768333 122.94,190.905 C123.253335,191.041667 123.613331,191.11 124.02,191.11 C124.433335,191.11 124.794998,191.041667 125.105,190.905 C125.415002,190.768333 125.676666,190.578335 125.89,190.335 C126.103334,190.091665 126.263333,189.806668 126.37,189.48 C126.476667,189.153332 126.53,188.800002 126.53,188.42 C126.53,188.039998 126.476667,187.685002 126.37,187.355 C126.263333,187.024998 126.103334,186.738335 125.89,186.495 C125.676666,186.251665 125.415002,186.060001 125.105,185.92 C124.794998,185.779999 124.433335,185.71 124.02,185.71 C123.613331,185.71 123.253335,185.779999 122.94,185.92 C122.626665,186.060001 122.363334,186.251665 122.15,186.495 C121.936666,186.738335 121.776667,187.024998 121.67,187.355 C121.563333,187.685002 121.51,188.039998 121.51,188.42 L121.51,188.42 Z M127.53,185.83 L127.53,191 L128.38,191 L128.38,188.08 C128.38,187.846666 128.411666,187.631668 128.475,187.435 C128.538334,187.238332 128.633333,187.066667 128.76,186.92 C128.886667,186.773333 129.044999,186.66 129.235,186.58 C129.425001,186.5 129.649999,186.46 129.91,186.46 C130.236668,186.46 130.493332,186.553332 130.68,186.74 C130.866668,186.926668 130.96,187.179998 130.96,187.5 L130.96,191 L131.81,191 L131.81,187.6 C131.81,187.319999 131.781667,187.065001 131.725,186.835 C131.668333,186.604999 131.570001,186.406667 131.43,186.24 C131.289999,186.073332 131.106668,185.943334 130.88,185.85 C130.653332,185.756666 130.370002,185.71 130.03,185.71 C129.263329,185.71 128.703335,186.02333 128.35,186.65 L128.33,186.65 L128.33,185.83 L127.53,185.83 Z M137.67,190.98 C137.523333,191.066667 137.320001,191.11 137.06,191.11 C136.839999,191.11 136.665001,191.048334 136.535,190.925 C136.404999,190.801666 136.34,190.600001 136.34,190.32 C136.106666,190.600001 135.835002,190.801666 135.525,190.925 C135.214998,191.048334 134.880002,191.11 134.52,191.11 C134.286665,191.11 134.065001,191.083334 133.855,191.03 C133.644999,190.976666 133.463334,190.893334 133.31,190.78 C133.156666,190.666666 133.035,190.518334 132.945,190.335 C132.855,190.151666 132.81,189.930001 132.81,189.67 C132.81,189.376665 132.86,189.136668 132.96,188.95 C133.060001,188.763332 133.191666,188.611667 133.355,188.495 C133.518334,188.378333 133.704999,188.29 133.915,188.23 C134.125001,188.17 134.339999,188.12 134.56,188.08 C134.793335,188.033333 135.014999,187.998333 135.225,187.975 C135.435001,187.951667 135.619999,187.918334 135.78,187.875 C135.940001,187.831666 136.066666,187.768334 136.16,187.685 C136.253334,187.601666 136.3,187.480001 136.3,187.32 C136.3,187.133332 136.265,186.983334 136.195,186.87 C136.125,186.756666 136.035001,186.67 135.925,186.61 C135.814999,186.55 135.691667,186.51 135.555,186.49 C135.418333,186.47 135.283334,186.46 135.15,186.46 C134.789998,186.46 134.490001,186.528333 134.25,186.665 C134.009999,186.801667 133.88,187.059998 133.86,187.44 L133.01,187.44 C133.023333,187.119998 133.089999,186.850001 133.21,186.63 C133.330001,186.409999 133.489999,186.231667 133.69,186.095 C133.890001,185.958333 134.118332,185.86 134.375,185.8 C134.631668,185.74 134.906665,185.71 135.2,185.71 C135.433335,185.71 135.664999,185.726666 135.895,185.76 C136.125001,185.793334 136.333332,185.861666 136.52,185.965 C136.706668,186.068334 136.856666,186.213332 136.97,186.4 C137.083334,186.586668 137.14,186.829998 137.14,187.13 L137.14,189.79 C137.14,189.990001 137.151667,190.136666 137.175,190.23 C137.198333,190.323334 137.276666,190.37 137.41,190.37 C137.483334,190.37 137.569999,190.353333 137.67,190.32 L137.67,190.98 Z M136.29,188.33 C136.183333,188.41 136.043334,188.468333 135.87,188.505 C135.696666,188.541667 135.515001,188.571667 135.325,188.595 C135.134999,188.618333 134.943334,188.645 134.75,188.675 C134.556666,188.705 134.383334,188.753333 134.23,188.82 C134.076666,188.886667 133.951667,188.981666 133.855,189.105 C133.758333,189.228334 133.71,189.396666 133.71,189.61 C133.71,189.750001 133.738333,189.868333 133.795,189.965 C133.851667,190.061667 133.925,190.14 134.015,190.2 C134.105,190.26 134.209999,190.303333 134.33,190.33 C134.450001,190.356667 134.576666,190.37 134.71,190.37 C134.990001,190.37 135.229999,190.331667 135.43,190.255 C135.630001,190.178333 135.793333,190.081667 135.92,189.965 C136.046667,189.848333 136.14,189.721667 136.2,189.585 C136.26,189.448333 136.29,189.320001 136.29,189.2 L136.29,188.33 Z" id="Lojban-Copy" fill="#165CA0"></path>
                <path d="M28.78,64.86 L28.78,72 L33.74,72 L33.74,71.2 L29.73,71.2 L29.73,68.73 L33.44,68.73 L33.44,67.93 L29.73,67.93 L29.73,65.66 L33.71,65.66 L33.71,64.86 L28.78,64.86 Z M34.75,66.83 L34.75,72 L35.6,72 L35.6,69.08 C35.6,68.8466655 35.6316664,68.6316677 35.695,68.435 C35.7583337,68.2383324 35.8533327,68.0666674 35.98,67.92 C36.1066673,67.7733326 36.2649991,67.6600004 36.455,67.58 C36.645001,67.4999996 36.8699987,67.46 37.13,67.46 C37.4566683,67.46 37.7133324,67.5533324 37.9,67.74 C38.0866676,67.9266676 38.18,68.1799984 38.18,68.5 L38.18,72 L39.03,72 L39.03,68.6 C39.03,68.3199986 39.001667,68.0650012 38.945,67.835 C38.8883331,67.6049989 38.7900007,67.4066675 38.65,67.24 C38.5099993,67.0733325 38.3266678,66.9433338 38.1,66.85 C37.8733322,66.7566662 37.5900017,66.71 37.25,66.71 C36.4833295,66.71 35.9233351,67.0233302 35.57,67.65 L35.55,67.65 L35.55,66.83 L34.75,66.83 Z M44.77,71.56 L44.77,66.83 L43.97,66.83 L43.97,67.57 L43.96,67.57 C43.8066659,67.2833319 43.5933347,67.0683341 43.32,66.925 C43.0466653,66.781666 42.7466683,66.71 42.42,66.71 C41.9733311,66.71 41.5966682,66.7949992 41.29,66.965 C40.9833318,67.1350009 40.7366676,67.3516654 40.55,67.615 C40.3633324,67.8783347 40.2300004,68.1716651 40.15,68.495 C40.0699996,68.818335 40.03,69.1333318 40.03,69.44 C40.03,69.7933351 40.0783329,70.1283318 40.175,70.445 C40.2716672,70.7616683 40.4166657,71.0383322 40.61,71.275 C40.8033343,71.5116679 41.0433319,71.6999993 41.33,71.84 C41.6166681,71.9800007 41.9533314,72.05 42.34,72.05 C42.673335,72.05 42.9883319,71.9750008 43.285,71.825 C43.5816682,71.6749993 43.8033326,71.4400016 43.95,71.12 L43.97,71.12 L43.97,71.46 C43.97,71.7466681 43.941667,72.0099988 43.885,72.25 C43.8283331,72.4900012 43.7366673,72.6949992 43.61,72.865 C43.4833327,73.0350009 43.3233343,73.1683329 43.13,73.265 C42.9366657,73.3616672 42.7000014,73.41 42.42,73.41 C42.2799993,73.41 42.1333341,73.3950002 41.98,73.365 C41.8266659,73.3349999 41.6850007,73.286667 41.555,73.22 C41.4249994,73.153333 41.3150005,73.0666672 41.225,72.96 C41.1349996,72.8533328 41.0866667,72.7233341 41.08,72.57 L40.23,72.57 C40.2433334,72.8500014 40.316666,73.0866657 40.45,73.28 C40.583334,73.4733343 40.7516657,73.6299994 40.955,73.75 C41.1583344,73.8700006 41.3849988,73.9566664 41.635,74.01 C41.8850013,74.0633336 42.1299988,74.09 42.37,74.09 C43.1966708,74.09 43.8033314,73.8800021 44.19,73.46 C44.5766686,73.0399979 44.77,72.4066709 44.77,71.56 L44.77,71.56 Z M42.39,71.31 C42.1099986,71.31 41.8766676,71.2516673 41.69,71.135 C41.5033324,71.0183328 41.3533339,70.865001 41.24,70.675 C41.1266661,70.4849991 41.0466669,70.2733345 41,70.04 C40.9533331,69.8066655 40.93,69.5733345 40.93,69.34 C40.93,69.0933321 40.9583331,68.8566678 41.015,68.63 C41.071667,68.4033322 41.1616661,68.2033342 41.285,68.03 C41.408334,67.8566658 41.5666657,67.7183339 41.76,67.615 C41.9533343,67.5116662 42.1866653,67.46 42.46,67.46 C42.726668,67.46 42.9533324,67.5133328 43.14,67.62 C43.3266676,67.7266672 43.4783328,67.8683325 43.595,68.045 C43.7116673,68.2216676 43.7966664,68.4199989 43.85,68.64 C43.9033336,68.8600011 43.93,69.0833322 43.93,69.31 C43.93,69.5500012 43.901667,69.7899988 43.845,70.03 C43.7883331,70.2700012 43.7000006,70.4849991 43.58,70.675 C43.4599994,70.865001 43.3016677,71.0183328 43.105,71.135 C42.9083324,71.2516673 42.6700014,71.31 42.39,71.31 L42.39,71.31 Z M46.1,64.86 L46.1,72 L46.95,72 L46.95,64.86 L46.1,64.86 Z M49.17,65.9 L49.17,64.86 L48.32,64.86 L48.32,65.9 L49.17,65.9 Z M48.32,66.83 L48.32,72 L49.17,72 L49.17,66.83 L48.32,66.83 Z M51.01,70.37 L50.16,70.37 C50.1733334,70.6900016 50.2399994,70.9616656 50.36,71.185 C50.4800006,71.4083345 50.639999,71.5883327 50.84,71.725 C51.040001,71.8616674 51.2699987,71.9599997 51.53,72.02 C51.7900013,72.0800003 52.0633319,72.11 52.35,72.11 C52.6100013,72.11 52.8716654,72.0850003 53.135,72.035 C53.3983347,71.9849998 53.634999,71.8966673 53.845,71.77 C54.0550011,71.6433327 54.2249994,71.4766677 54.355,71.27 C54.4850007,71.0633323 54.55,70.8033349 54.55,70.49 C54.55,70.2433321 54.5016672,70.0366675 54.405,69.87 C54.3083329,69.7033325 54.1816675,69.5650006 54.025,69.455 C53.8683326,69.3449995 53.6883344,69.256667 53.485,69.19 C53.2816657,69.123333 53.0733344,69.0666669 52.86,69.02 C52.659999,68.9733331 52.460001,68.9283336 52.26,68.885 C52.059999,68.8416665 51.8800008,68.7883337 51.72,68.725 C51.5599992,68.6616664 51.4283339,68.5816672 51.325,68.485 C51.2216662,68.3883329 51.17,68.2666674 51.17,68.12 C51.17,67.986666 51.203333,67.8783338 51.27,67.795 C51.336667,67.7116663 51.4233328,67.6450003 51.53,67.595 C51.6366672,67.5449998 51.7549994,67.5100001 51.885,67.49 C52.0150007,67.4699999 52.1433327,67.46 52.27,67.46 C52.4100007,67.46 52.5483327,67.4749999 52.685,67.505 C52.8216674,67.5350002 52.9466661,67.583333 53.06,67.65 C53.1733339,67.716667 53.2666663,67.8049995 53.34,67.915 C53.4133337,68.0250006 53.4566666,68.1633325 53.47,68.33 L54.32,68.33 C54.2999999,68.0166651 54.2333339,67.7550011 54.12,67.545 C54.0066661,67.334999 53.855001,67.168334 53.665,67.045 C53.4749991,66.9216661 53.2566679,66.8350003 53.01,66.785 C52.7633321,66.7349998 52.4933348,66.71 52.2,66.71 C51.9733322,66.71 51.7450012,66.7383331 51.515,66.795 C51.2849989,66.851667 51.0783343,66.9383328 50.895,67.055 C50.7116658,67.1716673 50.5616673,67.3233324 50.445,67.51 C50.3283328,67.6966676 50.27,67.9199987 50.27,68.18 C50.27,68.513335 50.3533325,68.7733324 50.52,68.96 C50.6866675,69.1466676 50.8949988,69.2916662 51.145,69.395 C51.3950013,69.4983339 51.6666652,69.5783331 51.96,69.635 C52.2533348,69.691667 52.5249988,69.7549997 52.775,69.825 C53.0250013,69.8950004 53.2333325,69.9866661 53.4,70.1 C53.5666675,70.2133339 53.65,70.3799989 53.65,70.6 C53.65,70.7600008 53.6100004,70.8916662 53.53,70.995 C53.4499996,71.0983339 53.348334,71.1766664 53.225,71.23 C53.1016661,71.2833336 52.9666674,71.3199999 52.82,71.34 C52.6733326,71.3600001 52.533334,71.37 52.4,71.37 C52.2266658,71.37 52.0583342,71.3533335 51.895,71.32 C51.7316659,71.2866665 51.5850007,71.2316671 51.455,71.155 C51.3249994,71.078333 51.2200004,70.9750007 51.14,70.845 C51.0599996,70.7149994 51.0166667,70.5566676 51.01,70.37 L51.01,70.37 Z M55.49,64.86 L55.49,72 L56.34,72 L56.34,69.08 C56.34,68.8466655 56.3716664,68.6316677 56.435,68.435 C56.4983337,68.2383324 56.5933327,68.0666674 56.72,67.92 C56.8466673,67.7733326 57.0049991,67.6600004 57.195,67.58 C57.385001,67.4999996 57.6099987,67.46 57.87,67.46 C58.1966683,67.46 58.4533324,67.5533324 58.64,67.74 C58.8266676,67.9266676 58.92,68.1799984 58.92,68.5 L58.92,72 L59.77,72 L59.77,68.6 C59.77,68.3199986 59.741667,68.0650012 59.685,67.835 C59.6283331,67.6049989 59.5300007,67.4066675 59.39,67.24 C59.2499993,67.0733325 59.0666678,66.9433338 58.84,66.85 C58.6133322,66.7566662 58.3300017,66.71 57.99,66.71 C57.8366659,66.71 57.6783342,66.7266665 57.515,66.76 C57.3516659,66.7933335 57.1950008,66.8449997 57.045,66.915 C56.8949993,66.9850004 56.7600006,67.0749995 56.64,67.185 C56.5199994,67.2950006 56.426667,67.4299992 56.36,67.59 L56.34,67.59 L56.34,64.86 L55.49,64.86 Z M28.67,81.83 L29.52,81.83 L29.52,82.53 L29.54,82.53 C29.6800007,82.2433319 29.8999985,82.0350007 30.2,81.905 C30.5000015,81.7749994 30.8299982,81.71 31.19,81.71 C31.590002,81.71 31.9383319,81.7833326 32.235,81.93 C32.5316682,82.0766674 32.7783324,82.2749988 32.975,82.525 C33.1716677,82.7750013 33.3199995,83.0633317 33.42,83.39 C33.5200005,83.7166683 33.57,84.0633315 33.57,84.43 C33.57,84.8033352 33.5216672,85.1516651 33.425,85.475 C33.3283329,85.798335 33.1816677,86.0816655 32.985,86.325 C32.7883324,86.5683346 32.5416682,86.7599993 32.245,86.9 C31.9483319,87.0400007 31.6033353,87.11 31.21,87.11 C31.076666,87.11 30.9333341,87.0966668 30.78,87.07 C30.6266659,87.0433332 30.4733341,87.0000003 30.32,86.94 C30.1666659,86.8799997 30.0216674,86.7983339 29.885,86.695 C29.7483327,86.5916662 29.6333338,86.4633341 29.54,86.31 L29.52,86.31 L29.52,88.97 L28.67,88.97 L28.67,81.83 Z M31.12,86.37 C31.4066681,86.37 31.649999,86.3133339 31.85,86.2 C32.050001,86.0866661 32.2099994,85.9366676 32.33,85.75 C32.4500006,85.5633324 32.5366664,85.3500012 32.59,85.11 C32.6433336,84.8699988 32.67,84.6233346 32.67,84.37 C32.67,84.1299988 32.6383337,83.8950011 32.575,83.665 C32.5116664,83.4349989 32.4150007,83.2300009 32.285,83.05 C32.1549994,82.8699991 31.9883344,82.7266672 31.785,82.62 C31.5816657,82.5133328 31.3433347,82.46 31.07,82.46 C30.7833319,82.46 30.540001,82.5166661 30.34,82.63 C30.139999,82.7433339 29.9766673,82.8916658 29.85,83.075 C29.7233327,83.2583343 29.631667,83.4666655 29.575,83.7 C29.5183331,83.9333345 29.49,84.1699988 29.49,84.41 C29.49,84.6633346 29.5199997,84.9083322 29.58,85.145 C29.6400003,85.3816678 29.7349994,85.5899991 29.865,85.77 C29.9950007,85.9500009 30.1633323,86.0949995 30.37,86.205 C30.5766677,86.3150006 30.8266652,86.37 31.12,86.37 L31.12,86.37 Z M35.1,89.06 C34.9999995,89.06 34.9000005,89.0533334 34.8,89.04 C34.6999995,89.0266666 34.6033338,89.0033335 34.51,88.97 L34.51,88.19 C34.5900004,88.2166668 34.6716663,88.2433332 34.755,88.27 C34.8383338,88.2966668 34.9233329,88.31 35.01,88.31 C35.1833342,88.31 35.3233328,88.2700004 35.43,88.19 C35.5366672,88.1099996 35.6299996,87.9933341 35.71,87.84 L36.06,86.97 L34.01,81.83 L34.97,81.83 L36.48,86.06 L36.5,86.06 L37.95,81.83 L38.85,81.83 L36.6,87.68 C36.4999995,87.9333346 36.4016672,88.1466658 36.305,88.32 C36.2083329,88.4933342 36.1016673,88.6349995 35.985,88.745 C35.8683328,88.8550006 35.7383341,88.9349998 35.595,88.985 C35.451666,89.0350003 35.2866676,89.06 35.1,89.06 L35.1,89.06 Z M41.71,87.11 C41.3166647,87.11 40.9683349,87.0466673 40.665,86.92 C40.3616652,86.7933327 40.1083344,86.6133345 39.905,86.38 C39.7016657,86.1466655 39.5483339,85.8700016 39.445,85.55 C39.3416662,85.2299984 39.29,84.8733353 39.29,84.48 C39.29,84.0933314 39.3399995,83.7316684 39.44,83.395 C39.5400005,83.0583317 39.6916657,82.7650013 39.895,82.515 C40.0983344,82.2649988 40.3516652,82.0683341 40.655,81.925 C40.9583349,81.781666 41.3166646,81.71 41.73,81.71 C42.0233348,81.71 42.2983321,81.7449997 42.555,81.815 C42.811668,81.8850003 43.0383324,81.9933326 43.235,82.14 C43.4316677,82.2866674 43.5933327,82.4716656 43.72,82.695 C43.8466673,82.9183345 43.9266665,83.1833318 43.96,83.49 L43.08,83.49 C43.013333,83.1633317 42.8733344,82.9100009 42.66,82.73 C42.4466656,82.5499991 42.1600018,82.46 41.8,82.46 C41.4933318,82.46 41.2366677,82.5166661 41.03,82.63 C40.8233323,82.7433339 40.658334,82.8933324 40.535,83.08 C40.4116661,83.2666676 40.3233336,83.4816655 40.27,83.725 C40.2166664,83.9683346 40.19,84.2199987 40.19,84.48 C40.19,84.7200012 40.2183331,84.9533322 40.275,85.18 C40.331667,85.4066678 40.4199994,85.6083325 40.54,85.785 C40.6600006,85.9616676 40.8149991,86.1033328 41.005,86.21 C41.195001,86.3166672 41.4266653,86.37 41.7,86.37 C42.1200021,86.37 42.4483322,86.2600011 42.685,86.04 C42.9216679,85.8199989 43.0666664,85.510002 43.12,85.11 L43.99,85.11 C43.8966662,85.7566699 43.6600019,86.251665 43.28,86.595 C42.8999981,86.9383351 42.37667,87.11 41.71,87.11 L41.71,87.11 Z M47.08,87.11 C46.6866647,87.11 46.3383349,87.0466673 46.035,86.92 C45.7316652,86.7933327 45.4783344,86.6133345 45.275,86.38 C45.0716657,86.1466655 44.9183339,85.8700016 44.815,85.55 C44.7116662,85.2299984 44.66,84.8733353 44.66,84.48 C44.66,84.0933314 44.7099995,83.7316684 44.81,83.395 C44.9100005,83.0583317 45.0616657,82.7650013 45.265,82.515 C45.4683344,82.2649988 45.7216652,82.0683341 46.025,81.925 C46.3283349,81.781666 46.6866646,81.71 47.1,81.71 C47.3933348,81.71 47.6683321,81.7449997 47.925,81.815 C48.181668,81.8850003 48.4083324,81.9933326 48.605,82.14 C48.8016677,82.2866674 48.9633327,82.4716656 49.09,82.695 C49.2166673,82.9183345 49.2966665,83.1833318 49.33,83.49 L48.45,83.49 C48.383333,83.1633317 48.2433344,82.9100009 48.03,82.73 C47.8166656,82.5499991 47.5300018,82.46 47.17,82.46 C46.8633318,82.46 46.6066677,82.5166661 46.4,82.63 C46.1933323,82.7433339 46.028334,82.8933324 45.905,83.08 C45.7816661,83.2666676 45.6933336,83.4816655 45.64,83.725 C45.5866664,83.9683346 45.56,84.2199987 45.56,84.48 C45.56,84.7200012 45.5883331,84.9533322 45.645,85.18 C45.701667,85.4066678 45.7899994,85.6083325 45.91,85.785 C46.0300006,85.9616676 46.1849991,86.1033328 46.375,86.21 C46.565001,86.3166672 46.7966653,86.37 47.07,86.37 C47.4900021,86.37 47.8183322,86.2600011 48.055,86.04 C48.2916679,85.8199989 48.4366664,85.510002 48.49,85.11 L49.36,85.11 C49.2666662,85.7566699 49.0300019,86.251665 48.65,86.595 C48.2699981,86.9383351 47.74667,87.11 47.08,87.11 L47.08,87.11 Z M50.31,81.83 L51.16,81.83 L51.16,84.3 L53.53,81.83 L54.66,81.83 L52.37,84.07 L54.93,87 L53.84,87 L51.68,84.54 L51.16,85.05 L51.16,87 L50.31,87 L50.31,81.83 Z M55.57,81.83 L56.42,81.83 L56.42,86.05 L58.86,81.83 L59.95,81.83 L59.95,87 L59.1,87 L59.1,82.78 L56.66,87 L55.57,87 L55.57,81.83 Z M61.23,81.83 L62.08,81.83 L62.08,86.05 L64.52,81.83 L65.61,81.83 L65.61,87 L64.76,87 L64.76,82.78 L62.32,87 L61.23,87 L61.23,81.83 Z M63.42,81.07 C63.219999,81.07 63.0333342,81.0400003 62.86,80.98 C62.6866658,80.9199997 62.5350007,80.8333339 62.405,80.72 C62.2749994,80.6066661 62.1716671,80.4683342 62.095,80.305 C62.018333,80.1416659 61.98,79.9533344 61.98,79.74 L62.69,79.74 C62.7033334,80.2333358 62.943331,80.48 63.41,80.48 C63.6433345,80.48 63.8216661,80.4150007 63.945,80.285 C64.068334,80.1549994 64.13,79.9733345 64.13,79.74 L64.84,79.74 C64.84,79.940001 64.8033337,80.1233325 64.73,80.29 C64.6566663,80.4566675 64.5566673,80.5966661 64.43,80.71 C64.3033327,80.8233339 64.1533342,80.9116664 63.98,80.975 C63.8066658,81.0383337 63.620001,81.07 63.42,81.07 L63.42,81.07 Z M28.78,94.86 L33.71,94.86 L33.71,95.66 L29.73,95.66 L29.73,97.93 L33.44,97.93 L33.44,98.73 L29.73,98.73 L29.73,101.2 L33.74,101.2 L33.74,102 L28.78,102 L28.78,94.86 Z M38.63,101.21 C38.6633335,101.283334 38.7016665,101.33 38.745,101.35 C38.7883336,101.37 38.843333,101.38 38.91,101.38 C38.9633336,101.38 39.0133331,101.376667 39.06,101.37 C39.1066669,101.363333 39.163333,101.35 39.23,101.33 L39.23,101.99 C39.1366662,102.036667 39.0550004,102.07 38.985,102.09 C38.9149997,102.11 38.8200006,102.12 38.7,102.12 C38.4799989,102.12 38.3066673,102.075 38.18,101.985 C38.0533327,101.895 37.956667,101.756668 37.89,101.57 L36.71,98.08 L36.69,98.08 L35.2,102 L34.23,102 L36.3,97.14 L35.83,95.91 C35.763333,95.7433325 35.6800005,95.6233337 35.58,95.55 C35.4799995,95.4766663 35.3433342,95.44 35.17,95.44 C35.0166659,95.44 34.8566675,95.4599998 34.69,95.5 L34.69,94.8 C34.890001,94.7266663 35.1066655,94.69 35.34,94.69 C35.5266676,94.69 35.691666,94.7133331 35.835,94.76 C35.9783341,94.8066669 36.1049995,94.8849995 36.215,94.995 C36.3250006,95.1050006 36.4249996,95.2483325 36.515,95.425 C36.6050005,95.6016676 36.6966662,95.8166654 36.79,96.07 L38.63,101.21 Z M43.81,101.21 C43.8433335,101.283334 43.8816665,101.33 43.925,101.35 C43.9683336,101.37 44.023333,101.38 44.09,101.38 C44.1433336,101.38 44.1933331,101.376667 44.24,101.37 C44.2866669,101.363333 44.343333,101.35 44.41,101.33 L44.41,101.99 C44.3166662,102.036667 44.2350004,102.07 44.165,102.09 C44.0949997,102.11 44.0000006,102.12 43.88,102.12 C43.6599989,102.12 43.4866673,102.075 43.36,101.985 C43.2333327,101.895 43.136667,101.756668 43.07,101.57 L41.89,98.08 L41.87,98.08 L40.38,102 L39.41,102 L41.48,97.14 L41.01,95.91 C40.943333,95.7433325 40.8600005,95.6233337 40.76,95.55 C40.6599995,95.4766663 40.5233342,95.44 40.35,95.44 C40.1966659,95.44 40.0366675,95.4599998 39.87,95.5 L39.87,94.8 C40.070001,94.7266663 40.2866655,94.69 40.52,94.69 C40.7066676,94.69 40.871666,94.7133331 41.015,94.76 C41.1583341,94.8066669 41.2849995,94.8849995 41.395,94.995 C41.5050006,95.1050006 41.6049996,95.2483325 41.695,95.425 C41.7850005,95.6016676 41.8766662,95.8166654 41.97,96.07 L43.81,101.21 Z M45.11,96.83 L45.91,96.83 L45.91,97.65 L45.93,97.65 C46.2833351,97.0233302 46.8433295,96.71 47.61,96.71 C47.9500017,96.71 48.2333322,96.7566662 48.46,96.85 C48.6866678,96.9433338 48.8699993,97.0733325 49.01,97.24 C49.1500007,97.4066675 49.2483331,97.6049989 49.305,97.835 C49.361667,98.0650012 49.39,98.3199986 49.39,98.6 L49.39,103.98 L48.54,103.98 L48.54,98.5 C48.54,98.1799984 48.4466676,97.9266676 48.26,97.74 C48.0733324,97.5533324 47.8166683,97.46 47.49,97.46 C47.2299987,97.46 47.005001,97.4999996 46.815,97.58 C46.6249991,97.6600004 46.4666673,97.7733326 46.34,97.92 C46.2133327,98.0666674 46.1183337,98.2383324 46.055,98.435 C45.9916664,98.6316677 45.96,98.8466655 45.96,99.08 L45.96,102 L45.11,102 L45.11,96.83 Z M54.76,96.83 C54.6199993,97.7100044 54.3900016,98.588329 54.07,99.465 C53.7499984,100.341671 53.3766688,101.186663 52.95,102 L52.04,102 L50.18,96.83 L51.13,96.83 L52.54,101.13 C52.6866674,100.823332 52.8299993,100.493335 52.97,100.14 C53.1100007,99.7866649 53.2383328,99.4250019 53.355,99.055 C53.4716673,98.6849982 53.5749996,98.3116686 53.665,97.935 C53.7550005,97.5583315 53.8266664,97.1900018 53.88,96.83 L54.76,96.83 Z M56.42,96.83 L56.42,100.88 C56.42,101.213335 56.5366655,101.38 56.77,101.38 C56.8233336,101.38 56.8783331,101.375 56.935,101.365 C56.991667,101.355 57.053333,101.343333 57.12,101.33 L57.12,101.99 C57.0133328,102.036667 56.9100005,102.07 56.81,102.09 C56.7099995,102.11 56.593334,102.12 56.46,102.12 C56.1599985,102.12 55.9366674,102.038334 55.79,101.875 C55.6433326,101.711666 55.57,101.453335 55.57,101.1 L55.57,96.83 L56.42,96.83 Z M57.89,96.83 L58.74,96.83 L58.74,99.22 L61.1,96.83 L62.24,96.83 L60.15,98.82 L62.39,102 L61.31,102 L59.53,99.43 L58.74,100.18 L58.74,102 L57.89,102 L57.89,96.83 Z M67.48,100.87 C67.48,101.050001 67.5116664,101.18 67.575,101.26 C67.6383337,101.34 67.7133329,101.38 67.8,101.38 C67.8533336,101.38 67.9099997,101.376667 67.97,101.37 C68.0300003,101.363333 68.0833331,101.353333 68.13,101.34 L68.13,102 C67.9699992,102.08 67.7733345,102.12 67.54,102.12 C67.2799987,102.12 67.0733341,102.046667 66.92,101.9 C66.7666659,101.753333 66.6766668,101.533335 66.65,101.24 L66.63,101.24 C66.4699992,101.560002 66.2483348,101.786666 65.965,101.92 C65.6816653,102.053334 65.3600018,102.12 65,102.12 C64.6199981,102.12 64.2900014,102.043334 64.01,101.89 C63.7299986,101.736666 63.4966676,101.533335 63.31,101.28 C63.1233324,101.026665 62.9833338,100.736668 62.89,100.41 C62.7966662,100.083332 62.75,99.7466684 62.75,99.4 C62.75,99.0533316 62.7966662,98.7166683 62.89,98.39 C62.9833338,98.0633317 63.1283324,97.7766679 63.325,97.53 C63.5216677,97.2833321 63.7683319,97.0850008 64.065,96.935 C64.3616682,96.7849993 64.7133313,96.71 65.12,96.71 C65.4333349,96.71 65.723332,96.7833326 65.99,96.93 C66.256668,97.0766674 66.4633326,97.2733321 66.61,97.52 L66.63,97.52 L66.63,96.83 L67.48,96.83 L67.48,100.87 Z M63.65,99.46 C63.65,99.6866678 63.6783331,99.9133322 63.735,100.14 C63.791667,100.366668 63.8783328,100.571666 63.995,100.755 C64.1116673,100.938334 64.2633324,101.086666 64.45,101.2 C64.6366676,101.313334 64.8599987,101.37 65.12,101.37 C65.4066681,101.37 65.6483324,101.313334 65.845,101.2 C66.0416677,101.086666 66.1999994,100.938334 66.32,100.755 C66.4400006,100.571666 66.5266664,100.363335 66.58,100.13 C66.6333336,99.8966655 66.66,99.6600012 66.66,99.42 C66.66,99.1666654 66.6300003,98.9216679 66.57,98.685 C66.5099997,98.4483322 66.418334,98.2400009 66.295,98.06 C66.1716661,97.8799991 66.0166676,97.7350006 65.83,97.625 C65.6433324,97.5149995 65.4266679,97.46 65.18,97.46 C64.8799985,97.46 64.6316677,97.5199994 64.435,97.64 C64.2383324,97.7600006 64.0816673,97.9149991 63.965,98.105 C63.8483328,98.295001 63.7666669,98.5099988 63.72,98.75 C63.6733331,98.9900012 63.65,99.2266655 63.65,99.46 L63.65,99.46 Z M65.23,94.68 L66.33,94.68 L65.58,96.11 L64.9,96.11 L65.23,94.68 Z M32.6,117.58 L32.6,114.51 L34.95,114.51 L34.95,115.07 L35.66,115.07 L35.66,110.9 L32.6,110.9 L32.6,109.15 L31.86,109.15 L31.86,110.9 L28.99,110.9 L28.99,115.13 L29.7,115.13 L29.7,114.51 L31.86,114.51 L31.86,117.58 L32.6,117.58 Z M34.95,111.48 L34.95,113.92 L32.59,113.92 L32.59,111.48 L34.95,111.48 Z M29.7,111.48 L31.85,111.48 L31.85,113.92 L29.7,113.92 L29.7,111.48 Z M44.72,116.81 C43.51,116.46 42.29,115.83 41.43,115.08 C42.24,114.19 42.87,112.96 43.24,111.38 L44.66,111.38 L44.66,110.76 L41.22,110.76 L41.22,109.17 L40.5,109.17 L40.5,110.76 L37.13,110.76 L37.13,111.38 L38.57,111.38 C38.96,112.91 39.63,114.17 40.4,115.08 C39.62,115.78 38.48,116.49 37.09,116.91 L37.48,117.57 C38.81,117.11 40.02,116.38 40.91,115.61 C41.75,116.38 43.04,117.11 44.32,117.53 L44.72,116.81 Z M39.32,111.38 L42.46,111.38 C42.11,112.78 41.58,113.81 40.92,114.56 C40.24,113.79 39.66,112.76 39.32,111.38 L39.32,111.38 Z" id="English-Copy-2" fill="#165CA0"></path>
                <path d="M101.43,67.56 L101.43,66.92 L100.1,66.92 L100.1,63.96 L99.34,63.96 L99.34,70.41 L100.1,70.41 L100.1,67.56 L101.43,67.56 Z M100.44,72.42 L100.44,71.78 L95.38,71.78 L95.38,70.18 L94.62,70.18 L94.62,72.42 L100.44,72.42 Z M97.11,64.94 L97.11,64.27 L94.59,64.27 L94.59,64.94 L97.11,64.94 Z M98.46,66.23 L98.46,65.6 L93.34,65.6 L93.34,66.23 L98.46,66.23 Z M97.96,68.23 C97.96,67.29 97.08,66.7 95.9,66.7 C94.73,66.7 93.85,67.29 93.85,68.23 C93.85,69.15 94.74,69.76 95.9,69.76 C97.08,69.76 97.96,69.15 97.96,68.23 L97.96,68.23 Z M97.24,68.23 C97.24,68.8 96.61,69.15 95.9,69.15 C95.2,69.15 94.57,68.8 94.57,68.23 C94.57,67.65 95.2,67.3 95.9,67.3 C96.61,67.3 97.24,67.65 97.24,68.23 L97.24,68.23 Z M102.87,69.81 L102.87,70.44 L108.15,70.44 L108.15,72.76 L108.92,72.76 L108.92,69.81 L106.35,69.81 L106.35,68.18 L109.92,68.18 L109.92,67.54 L108.62,67.54 C108.83,66.67 108.93,65.61 108.93,64.44 L102.99,64.44 L102.99,65.07 L108.15,65.07 C108.15,65.82 108.04,66.9 107.86,67.54 L102.03,67.54 L102.03,68.18 L105.59,68.18 L105.59,69.81 L102.87,69.81 Z M110.79,67.66 C110.79,69.52 111.59,70.75 113,70.75 C114.33,70.75 115.11,69.65 115.19,67.97 L117.06,67.97 L117.06,72.7 L117.82,72.7 L117.82,63.96 L117.06,63.96 L117.06,67.32 L115.19,67.32 C115.09,65.66 114.32,64.57 113,64.57 C111.59,64.57 110.79,65.81 110.79,67.66 L110.79,67.66 Z M114.45,67.67 C114.45,69.09 113.86,70.09 113,70.09 C112.13,70.09 111.55,69.09 111.55,67.67 C111.55,66.23 112.13,65.23 113,65.23 C113.86,65.23 114.45,66.23 114.45,67.67 L114.45,67.67 Z M99.83,86.44 C100.08,86.21 100.31,85.85 100.31,85.38 C100.31,84.67 99.78,84.01 98.67,84.01 C98.34,84.01 98.04,84.06 97.78,84.16 C97.45,83.97 97.21,83.65 97.21,83.33 C97.21,83.07 97.36,82.86 97.83,82.86 L99.96,82.86 L99.96,81.22 L101.02,81.22 L101.02,80.58 L95.51,80.58 L95.51,81.22 L99.23,81.22 L99.23,82.21 L97.66,82.21 C96.88,82.21 96.45,82.64 96.45,83.23 C96.45,83.78 96.78,84.23 97.18,84.48 C96.77,84.79 96.54,85.23 96.54,85.7 C96.54,86.96 97.75,87.69 99.69,87.83 L100.01,87.18 C97.98,87.07 97.31,86.45 97.31,85.72 C97.31,85.13 97.85,84.68 98.69,84.68 C99.28,84.68 99.57,84.98 99.57,85.35 C99.57,85.62 99.42,85.86 99.17,86.06 L99.83,86.44 Z M95.95,81.22 L95.95,80.58 L94.74,80.58 L94.74,79.71 C94.74,78.89 95.32,78.43 96.38,78.43 C97.88,78.43 98.89,79.23 99.39,79.92 L99.93,79.5 C99.44,78.78 98.19,77.75 96.38,77.75 C94.89,77.75 93.99,78.51 93.99,79.71 L93.99,80.58 L92.78,80.58 L92.78,81.22 L93.99,81.22 L93.99,87 L94.74,87 L94.74,81.22 L95.95,81.22 Z M107.49,82.75 L107.49,81.22 L108.96,81.22 L108.96,80.58 L100.58,80.58 L100.58,81.22 L106.73,81.22 L106.73,82.22 L105.53,82.52 C105.05,82.64 104.68,82.82 104.42,83.07 L101.63,83.07 L101.07,83.52 C101.07,84.08 101.35,84.6 101.73,84.83 L102.19,84.67 L102.19,83.75 L104.03,83.75 C104,83.89 103.98,84.03 103.98,84.19 C103.98,85.25 104.86,86.28 106.27,86.28 C106.62,86.28 106.97,86.21 107.24,86.08 L107.97,87.4 L108.86,87.18 L107.75,85.77 C107.93,85.61 108.1,85.34 108.1,84.94 C108.1,84.51 107.82,84.23 107.6,84.12 L107.05,84.32 L107.05,85.34 C106.88,85.49 106.56,85.59 106.17,85.59 C105.34,85.6 104.75,85.01 104.75,84.28 C104.75,83.72 105.04,83.36 105.92,83.13 L107.49,82.75 Z M111.69,81.22 L111.69,80.58 L110.47,80.58 C110.34,78.87 109.37,77.75 108.04,77.75 C107.1,77.75 106.49,78.36 106.49,79.11 C106.49,79.47 106.62,79.79 106.81,79.99 L107.57,79.83 C107.36,79.63 107.27,79.37 107.27,79.13 C107.27,78.71 107.57,78.41 108.06,78.41 C109.04,78.41 109.67,79.45 109.73,80.58 L108.52,80.58 L108.52,81.22 L109.73,81.22 L109.73,87 L110.48,87 L110.48,81.22 L111.69,81.22 Z" id="-copy" fill="#165CA0"></path>
            </g>
        </g>
    </g>
</svg>