<?xml version="1.0" encoding="UTF-8" standalone="no"?>
<svg width="300px" height="300px" viewBox="0 0 300 300" version="1.1" xmlns="http://www.w3.org/2000/svg" xmlns:xlink="http://www.w3.org/1999/xlink">
    <!-- Generator: Sketch 3.6.1 (26313) - http://www.bohemiancoding.com/sketch -->
    <title>cover-cross-wiki-notifications</title>
    <desc>Created with Sketch.</desc>
    <defs>
        <rect id="path-1" x="0" y="0" width="300" height="300"></rect>
    </defs>
    <g id="Assets" stroke="none" stroke-width="1" fill="none" fill-rule="evenodd">
        <g id="cover-cross-wiki-notifications">
            <g id="Rectangle-23">
                <use fill="#F8F8F8" xlink:href="#path-1"></use>
                <use fill="#333333" xlink:href="#path-1"></use>
            </g>
            <path d="M224.917749,21 L281.832315,21 L281.832315,36.4958463 L224.917749,36.4958463 L224.917749,21 Z" id="path20-copy" fill="#999999"></path>
            <path d="M162.829132,21 L219.743698,21 L219.743698,36.4958463 L162.829132,36.4958463 L162.829132,21 Z" id="path24-copy" fill="#999999"></path>
            <path d="M103.32754,21 L136.958875,21 L136.958875,36.4958463 L103.32754,36.4958463 L103.32754,21 Z" id="path26-copy" fill="#999999"></path>
            <path d="M142.132926,21 L157.65508,21 L157.65508,36.4958463 L142.132926,36.4958463 L142.132926,21 Z" id="path28-copy" fill="#347BFF"></path>
            <path d="M82.6313344,21 L98.1534888,21 L98.1534888,36.4958463 L82.6313344,36.4958463 L82.6313344,21 Z" id="path30-copy" fill="#999999"></path>
            <g id="Group" transform="translate(48.000000, 42.000000)">
                <path d="M0.113323645,15 C0.0469865836,15 0,231.881428 0,231.881428 C-2.00603195e-17,231.945931 203.834787,231.985455 203.834787,231.985455 C203.901124,231.985455 203.948111,15.1040273 203.948111,15.1040273 C203.948111,15.0395243 113.099219,15 113.099219,15 L101.737387,0 L90.3755807,15 L0.113323645,15 Z" id="Combined-Shape" fill="#347BFF"></path>
                <path d="M102.092117,68 C82.8527948,68 69.0245473,80.0041776 69.0245473,98.0104543 L69.0245473,128.020922 C69.0245473,140.025097 69.0245473,146.02718 57,146.02718 L57,152.029292 L147.184208,152.029292 L147.184208,146.02718 C135.159661,146.02718 135.159661,140.025097 135.159661,128.020922 L135.159661,98.0104543 C135.159661,80.0041776 121.331439,68 102.092117,68 L102.092117,68 Z M84.0552703,164.033465 C84.0552703,170.035551 93.6748926,176.037635 102.092117,176.037635 C110.509316,176.037635 120.128964,170.035551 120.128964,164.033465 L102.092117,164.033465 L84.0552703,164.033465 L84.0552703,164.033465 Z" id="path3-copy" fill="#FFFFFF"></path>
            </g>
        </g>
    </g>
</svg>